<svg width="40" height="41" viewBox="0 0 40 41" fill="none" xmlns="http://www.w3.org/2000/svg">
<path d="M9.99984 29.8333L6.6665 28V23.8333M6.6665 17.1667V13M6.6665 13L9.99984 11.1667M6.6665 13L9.99984 14.8333M16.6665 7.33333L19.9998 5.5L23.3332 7.33333M29.9998 11.1667L33.3332 13M33.3332 13V17.1667M33.3332 13L29.9998 14.8333M33.3332 23.8333V28L29.9998 29.8667M23.3332 33.6667L19.9998 35.5M19.9998 35.5L16.6665 33.6667M19.9998 35.5V31.3333M19.9998 20.5L23.3332 18.6667M19.9998 20.5V24.6667M19.9998 20.5L16.6665 18.6333" stroke="#FFC9F3" stroke-width="4" stroke-linecap="round" stroke-linejoin="round"/>
</svg>
