<svg width="25" height="24" viewBox="0 0 25 24" fill="none" xmlns="http://www.w3.org/2000/svg">
<path d="M7.59296 12.4141L6.88596 13.1211C6.3233 13.6837 6.0072 14.4468 6.0072 15.2426C6.0072 16.0383 6.3233 16.8014 6.88596 17.3641C7.44861 17.9267 8.21174 18.2428 9.00746 18.2428C9.80317 18.2428 10.5663 17.9267 11.129 17.3641L11.836 16.6571M19.614 4.63611C19.9889 5.01117 20.1996 5.51978 20.1996 6.05011C20.1996 6.58044 19.9889 7.08906 19.614 7.46411C20.0423 8.66024 20.1369 9.95039 19.8878 11.1962C19.6387 12.4421 19.0553 13.5966 18.2 14.5361L16.078 16.6561C15.6915 17.149 15.4262 17.7258 15.3034 18.3399C15.1806 18.9541 15.2038 19.5885 15.371 20.1921L4.05798 8.88011C4.66143 9.04716 5.29566 9.07022 5.90965 8.94742C6.52363 8.82463 7.10021 8.55941 7.59298 8.17311L9.71398 6.05011C10.6535 5.19483 11.808 4.61136 13.0539 4.36226C14.2997 4.11316 15.5898 4.20783 16.786 4.63611C17.161 4.26117 17.6697 4.05054 18.2 4.05054C18.7303 4.05054 19.2389 4.26117 19.614 4.63611Z" stroke="#FFC9F3" stroke-width="2" stroke-linecap="round" stroke-linejoin="round"/>
</svg>
