<svg width="25" height="24" viewBox="0 0 25 24" fill="none" xmlns="http://www.w3.org/2000/svg">
<path d="M21.2499 3L14.7499 21C14.7061 21.0957 14.6356 21.1769 14.547 21.2338C14.4584 21.2906 14.3553 21.3209 14.2499 21.3209C14.1446 21.3209 14.0415 21.2906 13.9529 21.2338C13.8643 21.1769 13.7938 21.0957 13.7499 21L10.2499 14L3.24995 10.5C3.15421 10.4561 3.07307 10.3857 3.01619 10.2971C2.95931 10.2084 2.92908 10.1053 2.92908 10C2.92908 9.89468 2.95931 9.79158 3.01619 9.70295C3.07307 9.61431 3.15421 9.54387 3.24995 9.5L21.2499 3Z" stroke="#B205AD" stroke-width="2" stroke-linecap="round" stroke-linejoin="round"/>
</svg>
