<svg width="20" height="20" viewBox="0 0 20 20" fill="none" xmlns="http://www.w3.org/2000/svg">
<path d="M7.49992 9.16668C7.49992 9.82972 7.76331 10.4656 8.23215 10.9344C8.70099 11.4033 9.33688 11.6667 9.99992 11.6667C10.663 11.6667 11.2988 11.4033 11.7677 10.9344C12.2365 10.4656 12.4999 9.82972 12.4999 9.16668C12.4999 8.50364 12.2365 7.86775 11.7677 7.39891C11.2988 6.93007 10.663 6.66668 9.99992 6.66668C9.33688 6.66668 8.70099 6.93007 8.23215 7.39891C7.76331 7.86775 7.49992 8.50364 7.49992 9.16668Z" stroke="#1A011A" stroke-width="2" stroke-linecap="round" stroke-linejoin="round"/>
<path d="M14.7141 13.8808L11.1783 17.4166C10.8657 17.7288 10.4421 17.9042 10.0003 17.9042C9.5586 17.9042 9.13493 17.7288 8.82242 17.4166L5.28576 13.8808C4.35344 12.9484 3.71853 11.7606 3.46133 10.4674C3.20412 9.17416 3.33616 7.83373 3.84076 6.61558C4.34535 5.39742 5.19984 4.35625 6.29616 3.62373C7.39248 2.8912 8.68139 2.50021 9.99992 2.50021C11.3184 2.50021 12.6074 2.8912 13.7037 3.62373C14.8 4.35625 15.6545 5.39742 16.1591 6.61558C16.6637 7.83373 16.7957 9.17416 16.5385 10.4674C16.2813 11.7606 15.6464 12.9484 14.7141 13.8808Z" stroke="#1A011A" stroke-width="2" stroke-linecap="round" stroke-linejoin="round"/>
</svg>
