<svg width="32" height="32" viewBox="0 0 32 32" fill="none" xmlns="http://www.w3.org/2000/svg">
<path d="M4.51294 20.1429C4.51294 17.6928 5.7259 14.7793 6.33198 13.6284C5.40631 10.7189 3.90271 4.63083 5.29121 3.55528C6.67973 2.47892 10.0322 6.0541 11.5341 7.97583C12.1477 7.65127 13.8872 7.00296 15.9388 7.00296C17.9906 7.00296 19.9191 7.65127 20.6276 7.97583C24.6682 3.45344 26.359 3.1446 26.6984 3.55528C28.1267 5.35943 26.6379 11.0219 25.7148 13.6284C26.3108 14.5831 27.5 17.2233 27.5 20.1437C27.5 23.7933 22.2548 29.0253 15.9164 29.0253C9.57846 29.0253 4.51294 23.2064 4.51294 20.1429Z" fill="#EB9A2E"/>
<path fill-rule="evenodd" clip-rule="evenodd" d="M6.69456 12.1082C6.15226 10.2759 5.23155 6.35792 5.88151 5.34615C6.53147 4.33436 9.13792 6.86712 10.36 8.2606C9.65622 8.82197 7.93652 10.3785 6.69456 12.1082ZM25.4382 12.1082C25.9797 10.2759 26.9013 6.35792 26.2512 5.34615C25.6005 4.33436 22.9949 6.86712 21.7728 8.2606C22.4766 8.82197 24.1962 10.3785 25.4382 12.1082Z" fill="#E58014"/>
<path d="M11.8367 14.6384C11.2298 14.7484 10.6122 14.788 9.99617 14.7568C9.88221 14.754 9.77328 14.7093 9.69 14.6315C9.60669 14.5539 9.55478 14.4481 9.5441 14.3345C9.48614 13.5845 9.77013 12.5834 10.6204 12.6232C11.6405 12.6711 12.086 13.4263 12.2424 14.0472C12.3119 14.3264 12.1166 14.588 11.8367 14.6384ZM20.2075 14.6384C20.9327 14.7709 21.6026 14.7817 22.0481 14.7568C22.1621 14.754 22.271 14.7093 22.3543 14.6315C22.4375 14.5539 22.4895 14.4481 22.5002 14.3345C22.5581 13.5845 22.2741 12.5834 21.4239 12.6232C20.4038 12.6711 19.9583 13.4263 19.8018 14.0472C19.7323 14.3264 19.9275 14.588 20.2075 14.6384Z" fill="#FEFFF7"/>
<path d="M15.2965 28.8747C6.5756 27.5457 4.47502 22.4892 4.51396 20.1271C9.0206 19.7941 10.5656 21.538 10.7742 22.4512C10.8943 21.0601 12.0667 18.2767 15.7942 18.2767C19.5217 18.2767 20.6942 21.0595 20.8141 22.4512C23.1209 19.6271 26.3317 19.9235 27.6491 20.4244C25.5162 27.5159 18.5258 29.0129 15.2965 28.8747Z" fill="#EAEAE8"/>
<path fill-rule="evenodd" clip-rule="evenodd" d="M17.1511 19.6163H14.7321C14.5697 19.6176 14.4147 19.6832 14.301 19.7987C14.1871 19.9141 14.1238 20.0701 14.125 20.2324V21.4263C14.1606 21.8129 14.5183 22.5523 15.6402 22.6765V23.8621C15.5658 23.9312 15.5075 24.0163 15.4697 24.1105H14.0231V24.1261C13.8706 23.9849 13.7019 23.8623 13.5207 23.7603C13.5031 23.7508 13.4838 23.7448 13.4639 23.7427C13.4442 23.7408 13.4241 23.7427 13.405 23.7485C13.3858 23.7541 13.3681 23.7637 13.3526 23.7763C13.3374 23.7891 13.3246 23.8047 13.3153 23.8223C13.296 23.8583 13.2914 23.9 13.3028 23.9392C13.314 23.9783 13.3402 24.0112 13.3758 24.0309C13.4726 24.0848 13.6225 24.1801 13.7499 24.2909C13.8145 24.3464 13.8699 24.4028 13.9106 24.4565C13.9519 24.5112 13.971 24.5536 13.9751 24.5808C13.9809 24.6123 13.9942 24.6388 14.0141 24.6604V25.3227C14.0141 25.4071 14.0819 25.4767 14.1655 25.4767C14.2061 25.4763 14.2447 25.4599 14.2731 25.4311C14.3015 25.402 14.3174 25.3632 14.317 25.3227V24.4177H17.5694V25.3227C17.5694 25.4071 17.6373 25.4767 17.7209 25.4767C17.741 25.4767 17.7609 25.4725 17.7794 25.4647C17.7979 25.4569 17.8147 25.4455 17.8289 25.4312C17.8431 25.4169 17.8543 25.3999 17.8619 25.3813C17.8694 25.3628 17.8733 25.3428 17.8733 25.3227V24.5833C17.8754 24.5744 17.8769 24.5652 17.8774 24.556L17.8799 24.5503C17.8907 24.5315 17.9034 24.5141 17.9179 24.4981C17.9567 24.4525 18.0147 24.3985 18.0861 24.3424C18.2269 24.2289 18.3965 24.1164 18.5109 24.0484C18.5457 24.0273 18.5707 23.9933 18.5807 23.9539C18.5909 23.9144 18.585 23.8725 18.5646 23.8373C18.5547 23.82 18.5414 23.8047 18.5255 23.7925C18.5097 23.7804 18.4915 23.7715 18.4722 23.7665C18.4527 23.7612 18.4326 23.7601 18.4129 23.7629C18.393 23.7657 18.3739 23.7724 18.3567 23.7827C18.1966 23.8787 18.0427 23.9852 17.8965 24.1015L17.8857 24.1097H16.3671C16.3363 24.0515 16.2957 23.9987 16.247 23.954V22.6831C17.4119 22.5804 17.7423 21.8195 17.7582 21.4263V20.2324C17.7594 20.0701 17.6959 19.9141 17.5822 19.7987C17.4683 19.6832 17.3134 19.6176 17.1511 19.6163ZM14.9273 24.8597L15.2486 25.2531L15.4935 25.0205L15.9383 25.4509L16.3977 25.0205L16.6122 25.2531L16.9087 24.8597H14.9273Z" fill="#000001"/>
<path d="M9.34243 15.656C8.89616 15.4805 8.89117 15.8913 8.945 16.1181V16.4608C8.94523 16.7713 9.03916 17.0744 9.21452 17.3305C9.38988 17.5868 9.63848 17.784 9.92781 17.8967C11.2807 18.4049 13.5667 19.1088 13.3167 18.3719C12.9856 17.4005 9.90047 15.8755 9.34243 15.656ZM22.5791 15.656C23.0246 15.4805 23.0305 15.8913 22.9766 16.1181V16.4608C22.9763 16.7713 22.8825 17.0744 22.707 17.3305C22.5318 17.5868 22.2831 17.784 21.9938 17.8967C20.6409 18.4049 18.3539 19.1088 18.605 18.3719C18.9353 17.4005 22.0211 15.8755 22.5791 15.656Z" fill="black"/>
<path fill-rule="evenodd" clip-rule="evenodd" d="M11.5272 7.26793C10.2149 5.64345 8.58872 3.82273 6.58174 3.02541C1.89458 1.16246 5.21556 11.888 5.70656 13.4347C5.06404 14.6823 3.84692 17.6035 3.84692 20.0709C3.84692 25.4128 11.5636 29.3333 16.0066 29.3333C20.6473 29.3333 28.1529 25.5413 28.1529 20.0709C28.1529 17.1755 27.0517 14.6211 26.405 13.5315C27.4011 10.6933 29.2417 5.52505 27.2527 2.97408C25.9131 1.37195 21.1649 6.52277 20.5877 7.15699C19.7193 6.80177 17.9077 6.37704 15.9371 6.37704C14.0021 6.37704 12.3205 6.90693 11.5272 7.26793ZM5.28015 3.59173C5.1692 3.6762 5.06571 3.82772 4.9854 4.07115C4.90592 4.31291 4.85623 4.62256 4.83636 4.99349C4.79744 5.73619 4.88191 6.6718 5.04335 7.68109C5.36295 9.6972 5.97648 11.9484 6.44428 13.4057L6.48568 13.5315L6.42275 13.6473C5.8142 14.7935 4.60784 17.6764 4.60784 20.0709C4.60784 20.7647 4.90095 21.6539 5.47142 22.6135C6.03774 23.5673 6.8624 24.5659 7.8891 25.4741C9.94411 27.2907 12.8701 28.5053 16.0066 28.5053C19.1527 28.5053 21.9431 27.4308 24.0397 25.6895C26.1493 23.9375 27.4053 21.7773 27.4053 20.0709C27.4053 17.2003 26.2189 14.5947 25.635 13.6673L25.5546 13.5391L25.6061 13.3967C26.0714 12.095 26.679 10.03 26.9897 8.07105C27.1451 7.09157 27.2247 6.15017 27.1785 5.34787C27.1321 4.54308 26.9622 3.92625 26.6626 3.54703C26.655 3.54124 26.5955 3.50149 26.405 3.53047C26.1849 3.56441 25.8469 3.68613 25.3701 3.97425C24.4197 4.54804 22.9838 5.74033 20.9346 8.01063L20.7871 8.17457L20.5869 8.08348C19.8957 7.76968 17.9737 7.12967 15.9371 7.12967C14.3755 7.12967 12.761 7.46416 11.3715 8.19196C10.3722 6.92599 9.28671 5.70803 8.03979 4.67971C7.49084 4.2268 6.06922 2.98567 5.28015 3.59173Z" fill="black"/>
</svg>
