<svg width="21" height="19" viewBox="0 0 21 19" fill="none" xmlns="http://www.w3.org/2000/svg">
<path d="M1.75002 17L3.05002 13.1C1.95002 11.4 1.55002 9.50002 1.95002 7.60002C2.35002 5.70002 3.45002 4.00002 5.15002 2.80002C6.85002 1.60002 8.95002 1.00001 11.15 1.10001C13.35 1.10001 15.35 2.00002 16.95 3.30002C18.55 4.60002 19.45 6.40001 19.65 8.40001C19.85 10.3 19.25 12.3 17.95 13.8C16.65 15.4 14.75 16.5 12.65 16.9C10.55 17.3 8.25002 17 6.35002 16.1L1.65002 17.1L1.75002 17Z" stroke="#B205AD" stroke-width="2" stroke-linecap="round" stroke-linejoin="round"/>
<path d="M13.15 7.80001C10.75 8.50001 10.25 9.10001 9.45 11.5C8.75 9.10001 8.15 8.60001 5.75 7.80001C8.15 7.10001 8.65 6.50001 9.45 4.10001C10.15 6.50001 10.75 7.00001 13.15 7.80001Z" stroke="#B205AD" stroke-width="2" stroke-linecap="round" stroke-linejoin="round"/>
<path d="M15.15 11.8C14.25 12.1 13.95 12.3 13.65 13.3C13.35 12.4 13.15 12.1 12.15 11.8C13.05 11.5 13.35 11.3 13.65 10.3C13.95 11.2 14.15 11.5 15.15 11.8Z" stroke="#B205AD" stroke-width="1.3" stroke-linecap="round" stroke-linejoin="round"/>
</svg>
