<svg width="25" height="24" viewBox="0 0 25 24" fill="none" xmlns="http://www.w3.org/2000/svg">
<path d="M12.95 5.6H11.7428L11.9356 5.79278C10.6356 6.01522 9.52655 6.62877 8.69387 7.53714C7.6357 8.69151 7.04995 10.2924 7.04995 12.1C7.04995 13.9117 7.90057 15.4853 9.05273 16.5973C10.1973 17.7019 11.6909 18.4 13.05 18.4C15.5603 18.4 17.4705 16.8966 18.305 14.7H22.0319C21.5579 16.7015 20.6851 18.3292 19.3588 19.4857C17.9074 20.7513 15.8586 21.5 13.05 21.5C7.5228 21.5 3.44995 17.4206 3.44995 12C3.44995 6.60144 8.3001 2.5 12.95 2.5C17.4036 2.5 20.8723 5.1735 21.9234 9.2H18.1994C17.3613 7.09475 15.4528 5.6 12.95 5.6Z" fill="#B205AD" stroke="#B205AD"/>
</svg>
