<svg width="17" height="17" viewBox="0 0 17 17" fill="none" xmlns="http://www.w3.org/2000/svg">
<path d="M1 8.5C1 9.48491 1.19399 10.4602 1.5709 11.3701C1.94781 12.2801 2.50026 13.1069 3.1967 13.8033M1 8.5C1 7.51509 1.19399 6.53982 1.5709 5.62987C1.94781 4.71993 2.50026 3.89314 3.1967 3.1967M1 8.5H4.33333M3.1967 13.8033C3.89314 14.4997 4.71993 15.0522 5.62987 15.4291C6.53982 15.806 7.51509 16 8.5 16M3.1967 13.8033L5.55372 11.4463M8.5 16C9.48491 16 10.4602 15.806 11.3701 15.4291C12.2801 15.0522 13.1069 14.4997 13.8033 13.8033M8.5 16V12.6667M13.8033 13.8033C14.4997 13.1069 15.0522 12.2801 15.4291 11.3701C15.806 10.4602 16 9.48491 16 8.5M13.8033 13.8033L11.4463 11.4463M16 8.5C16 7.51509 15.806 6.53982 15.4291 5.62987C15.0522 4.71993 14.4997 3.89314 13.8033 3.1967M16 8.5H12.6667M13.8033 3.1967C13.1069 2.50026 12.2801 1.94781 11.3701 1.5709C10.4602 1.19399 9.48491 1 8.5 1M13.8033 3.1967L11.4463 5.55372M8.5 1C7.51509 1 6.53982 1.19399 5.62987 1.5709C4.71993 1.94781 3.89314 2.50026 3.1967 3.1967M8.5 1V4.33333M3.1967 3.1967L5.55372 5.55372M4.33333 8.5C4.33333 9.60507 4.77232 10.6649 5.55372 11.4463M4.33333 8.5C4.33333 7.39493 4.77232 6.33512 5.55372 5.55372M5.55372 11.4463C6.33512 12.2277 7.39493 12.6667 8.5 12.6667M8.5 12.6667C9.60507 12.6667 10.6649 12.2277 11.4463 11.4463M11.4463 11.4463C12.2277 10.6649 12.6667 9.60507 12.6667 8.5M12.6667 8.5C12.6667 7.39493 12.2277 6.33512 11.4463 5.55372M11.4463 5.55372C10.6649 4.77232 9.60507 4.33333 8.5 4.33333M8.5 4.33333C7.39493 4.33333 6.33512 4.77232 5.55372 5.55372" stroke="#B205AD" stroke-width="2" stroke-linecap="round" stroke-linejoin="round"/>
</svg>
