<svg width="40" height="40" viewBox="0 0 40 40" fill="none" xmlns="http://www.w3.org/2000/svg">
<g filter="url(#filter0_ii_237_1970)">
<rect width="40" height="40" rx="20" fill="#FFC9F3"/>
<rect x="0.5" y="0.5" width="39" height="39" rx="19.5" stroke="#480646"/>
<path d="M11.0692 15.5L10.5769 13.9H13.2999H13.7999V13.4V11.3H25.7999V13.4V13.9H26.2999H29.3229L28.8306 15.5H28.4999H27.9999V16V26.4V26.9H28.4965C28.4983 26.9004 28.5024 26.9017 28.5088 26.9046C28.5228 26.9112 28.541 26.9232 28.5588 26.941C28.5767 26.9589 28.5887 26.9771 28.5952 26.9911C28.5982 26.9975 28.5994 27.0016 28.5999 27.0034V27.7V28.2H29.0999H29.1965C29.1983 28.2005 29.2024 28.2017 29.2088 28.2046C29.2228 28.2112 29.241 28.2232 29.2588 28.241C29.2767 28.2589 29.2887 28.2771 29.2952 28.2911C29.2982 28.2975 29.2994 28.3016 29.2999 28.3034V28.5H23.6999V28.3034C23.7004 28.3016 23.7016 28.2975 23.7046 28.2911C23.7111 28.2771 23.7231 28.2589 23.741 28.241C23.7588 28.2232 23.777 28.2112 23.791 28.2046C23.7974 28.2017 23.8015 28.2005 23.8033 28.2H23.8999H24.3999V27.7V27C24.3999 26.9815 24.4028 26.9725 24.404 26.9693C24.4052 26.9661 24.4075 26.9614 24.4137 26.9542C24.4277 26.9382 24.4678 26.9044 24.558 26.8743L24.8999 26.7604V26.4V20.6V20.5783L24.898 20.5567C24.6746 17.987 22.4478 16 19.7999 16C17.1381 16 15.024 18.0008 14.8018 20.5567L14.7999 20.5783V20.6V26.3V26.8H15.2993C15.2991 26.8 15.299 26.8 15.299 26.8C15.299 26.8001 15.3151 26.8014 15.3455 26.8139C15.3782 26.8274 15.414 26.8485 15.4458 26.8745C15.4734 26.897 15.4907 26.9173 15.4999 26.9307V27.6V28.1H15.9999H16.0965C16.0983 28.1005 16.1024 28.1017 16.1088 28.1046C16.1228 28.1112 16.141 28.1232 16.1588 28.141C16.1767 28.1589 16.1887 28.1771 16.1952 28.1911C16.1982 28.1975 16.1994 28.2016 16.1999 28.2034V28.4H10.5999V28.2034C10.6004 28.2016 10.6016 28.1975 10.6046 28.1911C10.6111 28.1771 10.6231 28.1589 10.641 28.141C10.6588 28.1232 10.677 28.1112 10.691 28.1046C10.6974 28.1017 10.7015 28.1005 10.7033 28.1H10.7999H11.2999V27.6V26.9034C11.3004 26.9016 11.3016 26.8975 11.3046 26.8911C11.3111 26.8771 11.3231 26.8589 11.341 26.841C11.3588 26.8232 11.377 26.8112 11.391 26.8046C11.3974 26.8017 11.4015 26.8005 11.4033 26.8H11.8999V26.3V16V15.5H11.3999H11.0692Z" fill="#B205AD" stroke="#B205AD"/>
</g>
<defs>
<filter id="filter0_ii_237_1970" x="0" y="-2" width="40" height="44" filterUnits="userSpaceOnUse" color-interpolation-filters="sRGB">
<feFlood flood-opacity="0" result="BackgroundImageFix"/>
<feBlend mode="normal" in="SourceGraphic" in2="BackgroundImageFix" result="shape"/>
<feColorMatrix in="SourceAlpha" type="matrix" values="0 0 0 0 0 0 0 0 0 0 0 0 0 0 0 0 0 0 127 0" result="hardAlpha"/>
<feOffset dy="4"/>
<feGaussianBlur stdDeviation="1"/>
<feComposite in2="hardAlpha" operator="arithmetic" k2="-1" k3="1"/>
<feColorMatrix type="matrix" values="0 0 0 0 1 0 0 0 0 1 0 0 0 0 1 0 0 0 0.3 0"/>
<feBlend mode="normal" in2="shape" result="effect1_innerShadow_237_1970"/>
<feColorMatrix in="SourceAlpha" type="matrix" values="0 0 0 0 0 0 0 0 0 0 0 0 0 0 0 0 0 0 127 0" result="hardAlpha"/>
<feOffset dy="-4"/>
<feGaussianBlur stdDeviation="1"/>
<feComposite in2="hardAlpha" operator="arithmetic" k2="-1" k3="1"/>
<feColorMatrix type="matrix" values="0 0 0 0 0 0 0 0 0 0 0 0 0 0 0 0 0 0 0.3 0"/>
<feBlend mode="normal" in2="effect1_innerShadow_237_1970" result="effect2_innerShadow_237_1970"/>
</filter>
</defs>
</svg>
