<svg width="25" height="24" viewBox="0 0 25 24" fill="none" xmlns="http://www.w3.org/2000/svg">
<path d="M3.81919 7.49999L3.32688 5.89999H6.0499H6.5499V5.39999V3.29999H18.5499V5.39999V5.89999H19.0499H22.0729L21.5806 7.49999H21.2499H20.7499V7.99999V18.4V18.9H21.2465C21.2483 18.9004 21.2524 18.9017 21.2588 18.9046C21.2728 18.9112 21.291 18.9232 21.3088 18.941C21.3267 18.9589 21.3387 18.9771 21.3452 18.9911C21.3482 18.9975 21.3494 19.0016 21.3499 19.0034V19.7V20.2H21.8499H21.9465C21.9483 20.2005 21.9524 20.2017 21.9588 20.2046C21.9728 20.2112 21.991 20.2232 22.0089 20.241C22.0267 20.2589 22.0387 20.2771 22.0452 20.2911C22.0482 20.2975 22.0494 20.3016 22.0499 20.3034V20.5H16.4499V20.3034C16.4504 20.3016 16.4516 20.2975 16.4546 20.2911C16.4611 20.2771 16.4731 20.2589 16.491 20.241C16.5088 20.2232 16.527 20.2112 16.541 20.2046C16.5474 20.2017 16.5515 20.2005 16.5533 20.2H16.6499H17.1499V19.7V19C17.1499 18.9815 17.1528 18.9725 17.154 18.9693C17.1552 18.9661 17.1575 18.9614 17.1637 18.9542C17.1777 18.9382 17.2178 18.9044 17.308 18.8743L17.6499 18.7604V18.4V12.6V12.5783L17.648 12.5567C17.4246 9.98704 15.1978 7.99999 12.5499 7.99999C9.88807 7.99999 7.77403 10.0008 7.55178 12.5567L7.5499 12.5783V12.6V18.3V18.8H8.04926C8.04911 18.8 8.04903 18.8 8.04903 18.8C8.04902 18.8001 8.06507 18.8014 8.09546 18.8139C8.12819 18.8274 8.16399 18.8485 8.19578 18.8745C8.22338 18.897 8.24071 18.9173 8.2499 18.9307V19.6V20.1H8.7499H8.8465C8.84833 20.1005 8.85243 20.1017 8.85877 20.1046C8.87278 20.1112 8.89099 20.1232 8.90885 20.141C8.92671 20.1589 8.93871 20.1771 8.94525 20.1911C8.94821 20.1975 8.94944 20.2016 8.9499 20.2034V20.4H3.3499V20.2034C3.35037 20.2016 3.3516 20.1975 3.35456 20.1911C3.36109 20.1771 3.3731 20.1589 3.39096 20.141C3.40881 20.1232 3.42702 20.1112 3.44103 20.1046C3.44737 20.1017 3.45147 20.1005 3.4533 20.1H3.5499H4.0499V19.6V18.9034C4.05037 18.9016 4.0516 18.8975 4.05456 18.8911C4.0611 18.8771 4.0731 18.8589 4.09096 18.841C4.10882 18.8232 4.12702 18.8112 4.14103 18.8046C4.14737 18.8017 4.15148 18.8005 4.1533 18.8H4.6499V18.3V7.99999V7.49999H4.1499H3.81919Z" fill="#B205AD" stroke="#B205AD"/>
</svg>
