<svg width="25" height="24" viewBox="0 0 25 24" fill="none" xmlns="http://www.w3.org/2000/svg">
<path d="M20.4758 12.265C20.8239 12.822 21.0709 13.3822 21.297 14H21.1302L21.3204 14.642C22.0997 17.2721 21.8538 19.1389 20.6462 20.3465L20.6358 20.3568L20.6261 20.3678C19.9453 21.1337 19.0983 21.5 17.5998 21.5C16.1017 21.5 14.3818 21.0308 12.5327 20.0575L12.2784 19.9237L12.0348 20.076C11.2868 20.5435 10.533 20.8285 9.64168 21.1257L9.6329 21.1286L9.62423 21.1318C8.87545 21.4126 7.9348 21.6 7.09979 21.6C5.82184 21.6 4.75642 21.1457 4.05987 20.453C2.93412 19.2345 2.6097 17.2546 3.37328 14.7614C3.6656 13.9838 4.05587 13.1059 4.44701 12.3236L4.56173 12.0942L4.44225 11.8671C3.47158 10.0229 2.99979 8.10246 2.99979 6.80001C2.99979 5.5015 3.36706 4.4437 4.14681 3.66011C5.36522 2.53434 7.34517 2.20991 9.83839 2.97349C10.616 3.26581 11.4939 3.65608 12.2762 4.04722L12.5093 4.16377L12.7383 4.03943C14.4396 3.11587 16.0902 2.62066 17.5079 2.56208C18.9243 2.50355 20.0722 2.8795 20.8462 3.65356C21.6203 4.42762 21.9962 5.57547 21.9377 6.99186C21.8791 8.40963 21.3839 10.0602 20.4604 11.7615L20.3212 12.0177L20.4758 12.265ZM12.2517 19.1341L12.5234 18.7785L12.6844 19.0111C13.9934 18.1049 15.3174 17.0881 16.4457 15.9612C17.6748 14.8333 18.7066 13.5958 19.5339 12.1481L19.6828 11.8875L19.5229 11.6336C17.7831 8.8703 15.4295 6.51675 12.6662 4.77689L12.3998 4.60915L12.1334 4.77689C9.37008 6.51675 7.01653 8.8703 5.27667 11.6336L5.10718 11.9028L5.2792 12.1704C6.19341 13.5925 7.21509 14.9224 8.34624 16.0536C9.56608 17.2734 10.8011 18.3052 12.2517 19.1341ZM20.5199 3.9159C20.0655 3.53725 19.519 3.26368 18.8882 3.11869L19.1069 2.90001H17.8998C16.6947 2.90001 15.3176 3.3341 13.9028 3.94043L13.0544 4.30403L13.8224 4.81603C14.9956 5.59813 16.07 6.4773 17.0462 7.45356C18.0225 8.42982 18.9017 9.50421 19.6838 10.6774L20.1707 11.4077L20.5506 10.6164C21.1731 9.31941 21.5226 8.02437 21.5497 6.87427C21.5766 5.72727 21.2816 4.67466 20.5533 3.94645L20.5373 3.93042L20.5199 3.9159ZM4.44624 3.94645L4.09268 4.30001L4.22171 4.42903C3.73111 5.11349 3.52728 5.98556 3.54993 6.93691C3.57703 8.07505 3.92685 9.36845 4.54581 10.7095L4.92022 11.5208L5.41582 10.7774C6.9792 8.43228 8.93207 6.47941 11.2771 4.91603L11.9345 4.47776L11.257 4.07126C10.9648 3.89591 10.6784 3.78278 10.415 3.69058C10.3159 3.65592 10.2254 3.6258 10.1393 3.59712C9.9821 3.54482 9.83933 3.49731 9.68549 3.43577L9.67184 3.43031L9.65791 3.42566C7.49226 2.70378 5.54801 2.84468 4.44624 3.94645ZM9.63715 20.5808L9.66174 20.5737L9.68549 20.5642L10.4355 20.2642L11.1855 19.9642L12.068 19.6112L11.2771 19.084C10.104 18.3019 9.0296 17.4227 8.05334 16.4465C7.07708 15.4702 6.19792 14.3958 5.41582 13.2227L4.97755 12.5653L4.57104 13.2428C4.3957 13.535 4.28256 13.8214 4.19036 14.0848C4.1557 14.1839 4.12558 14.2744 4.09691 14.3605C4.0446 14.5177 3.99709 14.6605 3.93555 14.8143L3.9301 14.828L3.92545 14.8419C3.20357 17.0075 3.34447 18.9518 4.44624 20.0536L4.45554 20.0629L4.46531 20.0717C5.66566 21.152 7.49414 21.1931 9.63715 20.5808ZM13.8224 19.184L13.0921 19.6709L13.8834 20.0508C15.1804 20.6733 16.4754 21.0228 17.6255 21.0499C18.7725 21.0769 19.8251 20.7818 20.5533 20.0536C21.2792 19.3277 21.5768 18.3022 21.5497 17.1631C21.5226 16.025 21.1727 14.7316 20.5538 13.3905L20.1794 12.5793L19.6838 13.3227C18.9017 14.4958 18.0225 15.5702 17.0462 16.5465C16.07 17.5227 14.9956 18.4019 13.8224 19.184Z" fill="#B205AD" stroke="#B205AD"/>
<path fill-rule="evenodd" clip-rule="evenodd" d="M9.09961 11.9L12.4996 13.8L15.8996 11.9L12.4996 6.60001L9.09961 11.9Z" fill="#B205AD"/>
<path fill-rule="evenodd" clip-rule="evenodd" d="M9.09961 12.8L12.4996 17.4L15.8996 12.8L12.4996 14.7L9.09961 12.8Z" fill="#B205AD"/>
</svg>
