<svg width="25" height="24" viewBox="0 0 25 24" fill="none" xmlns="http://www.w3.org/2000/svg">
<path d="M12.75 2.00001C15.0402 1.99677 17.2616 2.78291 19.04 4.22601C19.1523 4.31697 19.2436 4.43118 19.3075 4.56079C19.3714 4.6904 19.4065 4.83233 19.4103 4.97679C19.4141 5.12126 19.3865 5.26483 19.3295 5.39762C19.2725 5.53042 19.1874 5.64927 19.08 5.74601L17.57 7.10801C17.3985 7.26247 17.1788 7.35284 16.9482 7.36378C16.7176 7.37471 16.4904 7.30555 16.305 7.16801C15.2882 6.42071 14.0618 6.01299 12.8 6.00283C11.5382 5.99266 10.3053 6.38057 9.27661 7.1114C8.24794 7.84222 7.47587 8.87875 7.07019 10.0736C6.6645 11.2685 6.64584 12.5608 7.01687 13.7669C7.3879 14.9729 8.12972 16.0313 9.13686 16.7915C10.144 17.5517 11.3652 17.9751 12.6267 18.0013C13.8883 18.0276 15.1261 17.6555 16.164 16.9378C17.2019 16.2202 17.9871 15.1936 18.408 14.004L18.409 14H14.749C14.5042 13.9997 14.2681 13.9097 14.0853 13.747C13.9024 13.5842 13.7856 13.3601 13.757 13.117L13.75 13V11C13.75 10.7348 13.8554 10.4804 14.0429 10.2929C14.2304 10.1054 14.4848 10 14.75 10H21.695C21.9412 9.99999 22.1787 10.0908 22.3621 10.255C22.5455 10.4192 22.6619 10.6453 22.689 10.89C22.729 11.257 22.75 11.627 22.75 12C22.75 17.523 18.273 22 12.75 22C7.227 22 2.75 17.523 2.75 12C2.75 6.47701 7.227 2.00001 12.75 2.00001Z" fill="#B205AD"/>
</svg>
