<svg width="24" height="24" viewBox="0 0 24 24" fill="none" xmlns="http://www.w3.org/2000/svg">
<path fill-rule="evenodd" clip-rule="evenodd" d="M11.4217 1.94853C11.7818 1.75047 12.2183 1.75047 12.5784 1.94853L14.5784 3.04853C15.1591 3.36792 15.3709 4.09758 15.0515 4.67829C14.7321 5.25899 14.0025 5.47083 13.4217 5.15145L12 4.36951L10.5784 5.15145C9.99765 5.47083 9.26798 5.25899 8.94859 4.67829C8.6292 4.09758 8.84104 3.36792 9.42175 3.04853L11.4217 1.94853ZM7.05151 5.82168C7.3709 6.40238 7.15906 7.13205 6.57835 7.45144L6.49009 7.49998L6.57835 7.54853C7.15906 7.86792 7.3709 8.59759 7.05151 9.17829C6.73212 9.759 6.00245 9.97083 5.42174 9.65144L5.20005 9.52951V9.99998C5.20005 10.6627 4.66279 11.2 4.00005 11.2C3.33731 11.2 2.80005 10.6627 2.80005 9.99998V7.49998C2.80005 7.06235 3.03829 6.65942 3.42175 6.44852L5.42175 5.34852C6.00245 5.02913 6.73212 5.24097 7.05151 5.82168ZM16.9486 5.82168C17.268 5.24097 17.9976 5.02913 18.5784 5.34852L20.5784 6.44852C20.9618 6.65942 21.2 7.06235 21.2 7.49998V9.99998C21.2 10.6627 20.6628 11.2 20 11.2C19.3373 11.2 18.8 10.6627 18.8 9.99998V9.52951L18.5784 9.65144C17.9976 9.97083 17.268 9.759 16.9486 9.17829C16.6292 8.59759 16.841 7.86792 17.4217 7.54853L17.51 7.49998L17.4217 7.45144C16.841 7.13205 16.6292 6.40238 16.9486 5.82168ZM4.00005 12.8C4.66279 12.8 5.20005 13.3372 5.20005 14V15.7905L6.57835 16.5485C7.15906 16.8679 7.3709 17.5976 7.05151 18.1783C6.73212 18.759 6.00245 18.9708 5.42175 18.6514L3.42175 17.5514C3.03829 17.3405 2.80005 16.9376 2.80005 16.5V14C2.80005 13.3372 3.33731 12.8 4.00005 12.8ZM20 12.8C20.6628 12.8 21.2 13.3372 21.2 14V16.5C21.2 16.9343 20.9653 17.3348 20.5864 17.547L18.5864 18.667C18.0081 18.9908 17.2769 18.7846 16.953 18.2063C16.6292 17.6281 16.8355 16.8968 17.4137 16.573L18.8 15.7966V14C18.8 13.3372 19.3373 12.8 20 12.8ZM12 17.3C12.6628 17.3 13.2 17.8372 13.2 18.5V18.9705L13.4217 18.8485C14.0025 18.5291 14.7321 18.741 15.0515 19.3217C15.3709 19.9024 15.1591 20.6321 14.5784 20.9514L12.5784 22.0514C12.2183 22.2495 11.7818 22.2495 11.4217 22.0514L9.42175 20.9514C8.84104 20.6321 8.6292 19.9024 8.94859 19.3217C9.26798 18.741 9.99765 18.5291 10.5784 18.8485L10.8 18.9705V18.5C10.8 17.8372 11.3373 17.3 12 17.3Z" fill="#1A011A"/>
<path d="M10.0229 14.516C9.65855 14.516 9.34347 14.4502 9.07763 14.3186C8.81178 14.182 8.60501 13.9943 8.45732 13.7554C8.31455 13.5116 8.24316 13.2287 8.24316 12.9069V10.6395C8.24316 10.3176 8.31455 10.0373 8.45732 9.79833C8.60501 9.55452 8.81178 9.36679 9.07763 9.23513C9.34347 9.0986 9.65609 9.03033 10.0155 9.03033C10.3798 9.03033 10.6924 9.0986 10.9533 9.23513C11.2192 9.36679 11.4235 9.55452 11.5662 9.79833C11.7139 10.0373 11.7878 10.3176 11.7878 10.6395V12.9069C11.7878 13.2287 11.7139 13.5116 11.5662 13.7554C11.4235 13.9943 11.2192 14.182 10.9533 14.3186C10.6924 14.4502 10.3822 14.516 10.0229 14.516ZM10.0155 13.5652C10.2469 13.5652 10.4265 13.5067 10.5545 13.3896C10.6875 13.2726 10.7539 13.1117 10.7539 12.9069V10.6395C10.7539 10.4347 10.6875 10.2738 10.5545 10.1567C10.4265 10.0397 10.2469 9.98119 10.0155 9.98119C9.78409 9.98119 9.60193 10.0397 9.46901 10.1567C9.34101 10.2738 9.27701 10.4347 9.27701 10.6395V12.9069C9.27701 13.1117 9.34347 13.2726 9.47639 13.3896C9.60932 13.5067 9.78901 13.5652 10.0155 13.5652ZM10.0155 12.2779C9.86286 12.2779 9.73732 12.2291 9.63886 12.1316C9.54532 12.0341 9.49855 11.9073 9.49855 11.7512C9.49855 11.5952 9.54532 11.4709 9.63886 11.3782C9.73732 11.2856 9.86286 11.2392 10.0155 11.2392C10.173 11.2392 10.2985 11.2856 10.3921 11.3782C10.4856 11.4709 10.5324 11.5952 10.5324 11.7512C10.5324 11.9073 10.4856 12.0341 10.3921 12.1316C10.2985 12.2291 10.173 12.2779 10.0155 12.2779Z" fill="#1A011A"/>
<path d="M12.42 14.4429L13.823 12.3583L12.516 10.42H13.7492L14.2514 11.2246C14.2907 11.288 14.3277 11.3587 14.3621 11.4367C14.3966 11.5148 14.4237 11.5781 14.4434 11.6269C14.463 11.5781 14.4901 11.5148 14.5246 11.4367C14.564 11.3587 14.6009 11.288 14.6354 11.2246L15.1375 10.42H16.3707L15.071 12.3583L16.4667 14.4429H15.2335L14.6427 13.492C14.6034 13.4238 14.564 13.3531 14.5246 13.2799C14.4901 13.2019 14.463 13.1385 14.4434 13.0898C14.4237 13.1385 14.3966 13.2019 14.3621 13.2799C14.3277 13.3531 14.2907 13.4238 14.2514 13.492L13.6532 14.4429H12.42Z" fill="#1A011A"/>
</svg>
