<svg width="151" height="48" viewBox="0 0 151 48" fill="none" xmlns="http://www.w3.org/2000/svg">
<g filter="url(#filter0_b_158_1566)">
<path fill-rule="evenodd" clip-rule="evenodd" d="M23.0362 7.24757C23.6363 6.91748 24.3637 6.91748 24.9639 7.24757L28.2972 9.0809C29.265 9.61321 29.6181 10.8293 29.0858 11.7972C28.5535 12.765 27.3374 13.1181 26.3695 12.5858L24 11.2825L21.6305 12.5858C20.6627 13.1181 19.4466 12.765 18.9143 11.7972C18.3819 10.8293 18.735 9.61321 19.7028 9.0809L23.0362 7.24757ZM15.7525 13.7028C16.2848 14.6707 15.9317 15.8868 14.9639 16.4191L14.8168 16.5L14.9639 16.5809C15.9317 17.1132 16.2848 18.3293 15.7524 19.2972C15.2201 20.265 14.004 20.6181 13.0362 20.0858L12.6667 19.8825V20.6667C12.6667 21.7712 11.7713 22.6667 10.6667 22.6667C9.56212 22.6667 8.66669 21.7712 8.66669 20.6667V16.5C8.66669 15.7706 9.06375 15.0991 9.70285 14.7476L13.0362 12.9142C14.004 12.3819 15.2201 12.735 15.7525 13.7028ZM32.2476 13.7028C32.7799 12.735 33.996 12.3819 34.9639 12.9142L38.2972 14.7476C38.9363 15.0991 39.3334 15.7706 39.3334 16.5V20.6667C39.3334 21.7712 38.4379 22.6667 37.3334 22.6667C36.2288 22.6667 35.3334 21.7712 35.3334 20.6667V19.8825L34.9639 20.0858C33.996 20.6181 32.7799 20.265 32.2476 19.2972C31.7153 18.3293 32.0683 17.1132 33.0362 16.5809L33.1833 16.5L33.0362 16.4191C32.0683 15.8868 31.7153 14.6707 32.2476 13.7028ZM10.6667 25.3333C11.7713 25.3333 12.6667 26.2288 12.6667 27.3333V30.3175L14.9639 31.5809C15.9317 32.1132 16.2848 33.3293 15.7525 34.2972C15.2201 35.265 14.004 35.6181 13.0362 35.0858L9.70285 33.2524C9.06375 32.9009 8.66669 32.2294 8.66669 31.5V27.3333C8.66669 26.2288 9.56212 25.3333 10.6667 25.3333ZM37.3334 25.3333C38.4379 25.3333 39.3334 26.2288 39.3334 27.3333V31.5C39.3334 32.2239 38.9422 32.8913 38.3106 33.245L34.9772 35.1117C34.0135 35.6514 32.7947 35.3076 32.255 34.3439C31.7153 33.3801 32.0591 32.1614 33.0228 31.6217L35.3334 30.3278V27.3333C35.3334 26.2288 36.2288 25.3333 37.3334 25.3333ZM24 32.8333C25.1046 32.8333 26 33.7288 26 34.8333V35.6174L26.3695 35.4142C27.3374 34.8819 28.5535 35.235 29.0858 36.2028C29.6181 37.1707 29.265 38.3868 28.2972 38.9191L24.9639 40.7524C24.3637 41.0825 23.6363 41.0825 23.0362 40.7524L19.7028 38.9191C18.735 38.3868 18.3819 37.1707 18.9143 36.2028C19.4466 35.235 20.6627 34.8819 21.6305 35.4142L22 35.6174V34.8333C22 33.7288 22.8955 32.8333 24 32.8333Z" fill="#FFC9F3"/>
<path d="M20.7046 28.1933C20.0974 28.1933 19.5723 28.0836 19.1292 27.8642C18.6862 27.6366 18.3415 27.3237 18.0954 26.9255C17.8574 26.5192 17.7385 26.0478 17.7385 25.5114V21.7324C17.7385 21.196 17.8574 20.7287 18.0954 20.3305C18.3415 19.9241 18.6862 19.6112 19.1292 19.3918C19.5723 19.1643 20.0933 19.0505 20.6923 19.0505C21.2995 19.0505 21.8205 19.1643 22.2554 19.3918C22.6985 19.6112 23.039 19.9241 23.2769 20.3305C23.5231 20.7287 23.6462 21.196 23.6462 21.7324V25.5114C23.6462 26.0478 23.5231 26.5192 23.2769 26.9255C23.039 27.3237 22.6985 27.6366 22.2554 27.8642C21.8205 28.0836 21.3036 28.1933 20.7046 28.1933ZM20.6923 26.6086C21.078 26.6086 21.3774 26.511 21.5908 26.316C21.8123 26.121 21.9231 25.8528 21.9231 25.5114V21.7324C21.9231 21.391 21.8123 21.1229 21.5908 20.9278C21.3774 20.7328 21.078 20.6352 20.6923 20.6352C20.3067 20.6352 20.0031 20.7328 19.7815 20.9278C19.5682 21.1229 19.4615 21.391 19.4615 21.7324V25.5114C19.4615 25.8528 19.5723 26.121 19.7938 26.316C20.0154 26.511 20.3149 26.6086 20.6923 26.6086ZM20.6923 24.463C20.438 24.463 20.2287 24.3818 20.0646 24.2192C19.9087 24.0567 19.8308 23.8454 19.8308 23.5853C19.8308 23.3253 19.9087 23.118 20.0646 22.9636C20.2287 22.8092 20.438 22.732 20.6923 22.732C20.9549 22.732 21.1641 22.8092 21.32 22.9636C21.4759 23.118 21.5538 23.3253 21.5538 23.5853C21.5538 23.8454 21.4759 24.0567 21.32 24.2192C21.1641 24.3818 20.9549 24.463 20.6923 24.463Z" fill="#FFC9F3"/>
<path d="M24.6998 28.0714L27.0383 24.5971L24.8598 21.3667H26.9152L27.7521 22.7076C27.8178 22.8133 27.8793 22.9311 27.9367 23.0611C27.9942 23.1912 28.0393 23.2968 28.0721 23.3781C28.1049 23.2968 28.1501 23.1912 28.2075 23.0611C28.2731 22.9311 28.3347 22.8133 28.3921 22.7076L29.229 21.3667H31.2844L29.1183 24.5971L31.4444 28.0714H29.389L28.4044 26.4867C28.3388 26.3729 28.2731 26.255 28.2075 26.1331C28.1501 26.0031 28.1049 25.8975 28.0721 25.8162C28.0393 25.8975 27.9942 26.0031 27.9367 26.1331C27.8793 26.255 27.8178 26.3729 27.7521 26.4867L26.7552 28.0714H24.6998Z" fill="#FFC9F3"/>
<path d="M59.04 34.28C57.6107 34.28 56.3627 34.0027 55.296 33.448C54.2507 32.872 53.44 32.072 52.864 31.048C52.288 30.0027 52 28.7867 52 27.4V17.16C52 15.752 52.288 14.536 52.864 13.512C53.44 12.488 54.2507 11.6987 55.296 11.144C56.3627 10.568 57.6107 10.28 59.04 10.28C60.4907 10.28 61.7387 10.568 62.784 11.144C63.8293 11.6987 64.64 12.488 65.216 13.512C65.792 14.536 66.08 15.752 66.08 17.16V27.4C66.08 28.7867 65.792 30.0027 65.216 31.048C64.64 32.072 63.8187 32.872 62.752 33.448C61.7067 34.0027 60.4693 34.28 59.04 34.28ZM59.04 31.816C60.32 31.816 61.344 31.4107 62.112 30.6C62.9013 29.768 63.296 28.7014 63.296 27.4V17.16C63.296 15.8587 62.9013 14.8027 62.112 13.992C61.344 13.16 60.32 12.744 59.04 12.744C57.76 12.744 56.7253 13.16 55.936 13.992C55.168 14.8027 54.784 15.8587 54.784 17.16V27.4C54.784 28.7014 55.168 29.768 55.936 30.6C56.7253 31.4107 57.76 31.816 59.04 31.816ZM59.04 24.168C58.464 24.168 57.9947 23.9867 57.632 23.624C57.2907 23.2614 57.12 22.7814 57.12 22.184C57.12 21.608 57.2907 21.1494 57.632 20.808C57.9947 20.4454 58.464 20.264 59.04 20.264C59.616 20.264 60.0747 20.4454 60.416 20.808C60.7787 21.1494 60.96 21.608 60.96 22.184C60.96 22.7814 60.7787 23.2614 60.416 23.624C60.0747 23.9867 59.616 24.168 59.04 24.168Z" fill="url(#paint0_linear_158_1566)"/>
<path d="M70.2275 33.96L76.4675 24.904L70.6115 16.36H74.0035L77.4915 21.8C77.6408 22.0347 77.7795 22.2907 77.9075 22.568C78.0568 22.8454 78.1742 23.0694 78.2595 23.24C78.3235 23.0694 78.4195 22.8454 78.5475 22.568C78.6968 22.2907 78.8462 22.0347 78.9955 21.8L82.5155 16.36H85.8755L80.0195 24.936L86.2275 33.96H82.8355L79.0595 28.2C78.9102 27.9654 78.7608 27.6987 78.6115 27.4C78.4835 27.08 78.3662 26.824 78.2595 26.632C78.1742 26.824 78.0462 27.08 77.8755 27.4C77.7262 27.6987 77.5662 27.9654 77.3955 28.2L73.5875 33.96H70.2275Z" fill="url(#paint1_linear_158_1566)"/>
<path d="M99.623 34.344C97.3617 34.344 95.4097 33.864 93.767 32.904C92.1457 31.9227 90.8977 30.568 90.023 28.84C89.1483 27.0907 88.711 25.0747 88.711 22.792C88.711 20.5094 89.1483 18.4934 90.023 16.744C90.8977 14.9947 92.1457 13.6294 93.767 12.648C95.4097 11.6667 97.3617 11.176 99.623 11.176C102.354 11.176 104.594 11.8587 106.343 13.224C108.092 14.5894 109.17 16.5094 109.575 18.984H104.647C104.391 17.7894 103.826 16.872 102.951 16.232C102.098 15.5707 100.967 15.24 99.559 15.24C98.2363 15.24 97.1057 15.5494 96.167 16.168C95.2283 16.7654 94.503 17.6294 93.991 18.76C93.5003 19.8907 93.255 21.2347 93.255 22.792C93.255 24.3494 93.5003 25.6934 93.991 26.824C94.503 27.9334 95.2283 28.7974 96.167 29.416C97.1057 30.0134 98.2363 30.312 99.559 30.312C100.967 30.312 102.098 30.0134 102.951 29.416C103.804 28.7974 104.359 27.9227 104.615 26.792H109.543C109.138 29.16 108.06 31.016 106.311 32.36C104.583 33.6827 102.354 34.344 99.623 34.344Z" fill="url(#paint2_linear_158_1566)"/>
<path d="M111.529 33.96V18.088H116.009V33.96H111.529ZM111.722 15.56V11.4H115.882V15.56H111.722Z" fill="url(#paint3_linear_158_1566)"/>
<path d="M125.063 33.96C123.953 33.96 123.015 33.832 122.247 33.576C121.5 33.32 120.935 32.8294 120.551 32.104C120.167 31.3574 119.975 30.2907 119.975 28.904V21.832H117.255V18.088H119.975V13.736H124.455V18.088H128.359V21.832H124.455V28.36C124.455 28.8507 124.508 29.224 124.615 29.48C124.721 29.736 124.913 29.9174 125.191 30.024C125.489 30.1094 125.884 30.152 126.375 30.152H128.263V33.96H125.063Z" fill="url(#paint4_linear_158_1566)"/>
<path d="M128.805 41V37.48H132.261C132.581 37.48 132.847 37.4374 133.061 37.352C133.274 37.288 133.477 37.1387 133.669 36.904C133.861 36.6694 134.063 36.296 134.277 35.784L135.525 33.032L135.333 34.952L128.421 18.088H133.285L137.509 28.904L141.893 18.088H146.693L138.277 37.384C137.935 38.152 137.637 38.7707 137.381 39.24C137.125 39.7307 136.858 40.0934 136.581 40.328C136.325 40.584 136.015 40.7547 135.653 40.84C135.29 40.9467 134.831 41 134.277 41H128.805Z" fill="url(#paint5_linear_158_1566)"/>
</g>
<defs>
<filter id="filter0_b_158_1566" x="-30" y="-30" width="210.693" height="108" filterUnits="userSpaceOnUse" color-interpolation-filters="sRGB">
<feFlood flood-opacity="0" result="BackgroundImageFix"/>
<feGaussianBlur in="BackgroundImageFix" stdDeviation="15"/>
<feComposite in2="SourceAlpha" operator="in" result="effect1_backgroundBlur_158_1566"/>
<feBlend mode="normal" in="SourceGraphic" in2="effect1_backgroundBlur_158_1566" result="shape"/>
</filter>
<linearGradient id="paint0_linear_158_1566" x1="52" y1="25.64" x2="145.991" y2="17.5163" gradientUnits="userSpaceOnUse">
<stop stop-color="#A9FF84"/>
<stop offset="0.33" stop-color="#7FFFE1"/>
<stop offset="0.66" stop-color="#F98CFF"/>
<stop offset="1" stop-color="#FFEB89"/>
</linearGradient>
<linearGradient id="paint1_linear_158_1566" x1="52" y1="25.64" x2="145.991" y2="17.5163" gradientUnits="userSpaceOnUse">
<stop stop-color="#A9FF84"/>
<stop offset="0.33" stop-color="#7FFFE1"/>
<stop offset="0.66" stop-color="#F98CFF"/>
<stop offset="1" stop-color="#FFEB89"/>
</linearGradient>
<linearGradient id="paint2_linear_158_1566" x1="52" y1="25.64" x2="145.991" y2="17.5163" gradientUnits="userSpaceOnUse">
<stop stop-color="#A9FF84"/>
<stop offset="0.33" stop-color="#7FFFE1"/>
<stop offset="0.66" stop-color="#F98CFF"/>
<stop offset="1" stop-color="#FFEB89"/>
</linearGradient>
<linearGradient id="paint3_linear_158_1566" x1="52" y1="25.64" x2="145.991" y2="17.5163" gradientUnits="userSpaceOnUse">
<stop stop-color="#A9FF84"/>
<stop offset="0.33" stop-color="#7FFFE1"/>
<stop offset="0.66" stop-color="#F98CFF"/>
<stop offset="1" stop-color="#FFEB89"/>
</linearGradient>
<linearGradient id="paint4_linear_158_1566" x1="52" y1="25.64" x2="145.991" y2="17.5163" gradientUnits="userSpaceOnUse">
<stop stop-color="#A9FF84"/>
<stop offset="0.33" stop-color="#7FFFE1"/>
<stop offset="0.66" stop-color="#F98CFF"/>
<stop offset="1" stop-color="#FFEB89"/>
</linearGradient>
<linearGradient id="paint5_linear_158_1566" x1="52" y1="25.64" x2="145.991" y2="17.5163" gradientUnits="userSpaceOnUse">
<stop stop-color="#A9FF84"/>
<stop offset="0.33" stop-color="#7FFFE1"/>
<stop offset="0.66" stop-color="#F98CFF"/>
<stop offset="1" stop-color="#FFEB89"/>
</linearGradient>
</defs>
</svg>
