<svg width="54" height="24" viewBox="0 0 54 24" fill="none" xmlns="http://www.w3.org/2000/svg">
<path d="M30 3H12V6H30V3Z" fill="#D53C5E"/>
<path d="M51 3H33V6H51V3Z" fill="#D53C5E"/>
<path d="M15 5.99994H12V8.99994H15V5.99994Z" fill="#D53C5E"/>
<path d="M21 5.99994H15V8.99994H21V5.99994Z" fill="white"/>
<path d="M27 5.99994H21V8.99994H27V5.99994Z" fill="black"/>
<path d="M30 5.99994H27V8.99994H30V5.99994Z" fill="#D53C5E"/>
<path d="M36 5.99994H33V8.99994H36V5.99994Z" fill="#D53C5E"/>
<path d="M42 5.99994H36V8.99994H42V5.99994Z" fill="white"/>
<path d="M48 5.99994H42V8.99994H48V5.99994Z" fill="black"/>
<path d="M51 5.99994H48V8.99994H51V5.99994Z" fill="#D53C5E"/>
<path d="M15 9.00006H3V12.0001H15V9.00006Z" fill="#D53C5E"/>
<path d="M21 9.00006H15V12.0001H21V9.00006Z" fill="white"/>
<path d="M27 9.00006H21V12.0001H27V9.00006Z" fill="black"/>
<path d="M36 9.00006H27V12.0001H36V9.00006Z" fill="#D53C5E"/>
<path d="M42 9.00006H36V12.0001H42V9.00006Z" fill="white"/>
<path d="M48 9.00006H42V12.0001H48V9.00006Z" fill="black"/>
<path d="M51 9.00006H48V12.0001H51V9.00006Z" fill="#D53C5E"/>
<path d="M6 12H3V15H6V12Z" fill="#D53C5E"/>
<path d="M15 12H12V15H15V12Z" fill="#D53C5E"/>
<path d="M21 12H15V15H21V12Z" fill="white"/>
<path d="M27 12H21V15H27V12Z" fill="black"/>
<path d="M30 12H27V15H30V12Z" fill="#D53C5E"/>
<path d="M36 12H33V15H36V12Z" fill="#D53C5E"/>
<path d="M42 12H36V15H42V12Z" fill="white"/>
<path d="M48 12H42V15H48V12Z" fill="black"/>
<path d="M51 12H48V15H51V12Z" fill="#D53C5E"/>
<path d="M6 14.9999H3V17.9999H6V14.9999Z" fill="#D53C5E"/>
<path d="M15 14.9999H12V17.9999H15V14.9999Z" fill="#D53C5E"/>
<path d="M21 14.9999H15V17.9999H21V14.9999Z" fill="white"/>
<path d="M27 14.9999H21V17.9999H27V14.9999Z" fill="black"/>
<path d="M30 14.9999H27V17.9999H30V14.9999Z" fill="#D53C5E"/>
<path d="M36 14.9999H33V17.9999H36V14.9999Z" fill="#D53C5E"/>
<path d="M42 14.9999H36V17.9999H42V14.9999Z" fill="white"/>
<path d="M48 14.9999H42V17.9999H48V14.9999Z" fill="black"/>
<path d="M51 14.9999H48V17.9999H51V14.9999Z" fill="#D53C5E"/>
<path d="M30 18.0001H12V21.0001H30V18.0001Z" fill="#D53C5E"/>
<path d="M51 18.0001H33V21.0001H51V18.0001Z" fill="#D53C5E"/>
</svg>
