<svg width="55" height="24" viewBox="0 0 55 24" fill="none" xmlns="http://www.w3.org/2000/svg">
<path d="M30.5 3H12.5V6H30.5V3Z" fill="#D53C5E"/>
<path d="M51.5 3H33.5V6H51.5V3Z" fill="#D53C5E"/>
<path d="M15.5 5.99994H12.5V8.99994H15.5V5.99994Z" fill="#D53C5E"/>
<path d="M21.5 5.99994H15.5V8.99994H21.5V5.99994Z" fill="white"/>
<path d="M27.5 5.99994H21.5V8.99994H27.5V5.99994Z" fill="black"/>
<path d="M30.5 5.99994H27.5V8.99994H30.5V5.99994Z" fill="#D53C5E"/>
<path d="M36.5 5.99994H33.5V8.99994H36.5V5.99994Z" fill="#D53C5E"/>
<path d="M42.5 5.99994H36.5V8.99994H42.5V5.99994Z" fill="white"/>
<path d="M48.5 5.99994H42.5V8.99994H48.5V5.99994Z" fill="black"/>
<path d="M51.5 5.99994H48.5V8.99994H51.5V5.99994Z" fill="#D53C5E"/>
<path d="M15.5 9.00006H3.5V12.0001H15.5V9.00006Z" fill="#D53C5E"/>
<path d="M21.5 9.00006H15.5V12.0001H21.5V9.00006Z" fill="white"/>
<path d="M27.5 9.00006H21.5V12.0001H27.5V9.00006Z" fill="black"/>
<path d="M36.5 9.00006H27.5V12.0001H36.5V9.00006Z" fill="#D53C5E"/>
<path d="M42.5 9.00006H36.5V12.0001H42.5V9.00006Z" fill="white"/>
<path d="M48.5 9.00006H42.5V12.0001H48.5V9.00006Z" fill="black"/>
<path d="M51.5 9.00006H48.5V12.0001H51.5V9.00006Z" fill="#D53C5E"/>
<path d="M6.5 12H3.5V15H6.5V12Z" fill="#D53C5E"/>
<path d="M15.5 12H12.5V15H15.5V12Z" fill="#D53C5E"/>
<path d="M21.5 12H15.5V15H21.5V12Z" fill="white"/>
<path d="M27.5 12H21.5V15H27.5V12Z" fill="black"/>
<path d="M30.5 12H27.5V15H30.5V12Z" fill="#D53C5E"/>
<path d="M36.5 12H33.5V15H36.5V12Z" fill="#D53C5E"/>
<path d="M42.5 12H36.5V15H42.5V12Z" fill="white"/>
<path d="M48.5 12H42.5V15H48.5V12Z" fill="black"/>
<path d="M51.5 12H48.5V15H51.5V12Z" fill="#D53C5E"/>
<path d="M6.5 14.9999H3.5V17.9999H6.5V14.9999Z" fill="#D53C5E"/>
<path d="M15.5 14.9999H12.5V17.9999H15.5V14.9999Z" fill="#D53C5E"/>
<path d="M21.5 14.9999H15.5V17.9999H21.5V14.9999Z" fill="white"/>
<path d="M27.5 14.9999H21.5V17.9999H27.5V14.9999Z" fill="black"/>
<path d="M30.5 14.9999H27.5V17.9999H30.5V14.9999Z" fill="#D53C5E"/>
<path d="M36.5 14.9999H33.5V17.9999H36.5V14.9999Z" fill="#D53C5E"/>
<path d="M42.5 14.9999H36.5V17.9999H42.5V14.9999Z" fill="white"/>
<path d="M48.5 14.9999H42.5V17.9999H48.5V14.9999Z" fill="black"/>
<path d="M51.5 14.9999H48.5V17.9999H51.5V14.9999Z" fill="#D53C5E"/>
<path d="M30.5 18.0001H12.5V21.0001H30.5V18.0001Z" fill="#D53C5E"/>
<path d="M51.5 18.0001H33.5V21.0001H51.5V18.0001Z" fill="#D53C5E"/>
</svg>
