<svg width="21" height="21" viewBox="0 0 21 21" fill="none" xmlns="http://www.w3.org/2000/svg">
<path d="M3 10.5C3 11.4849 3.19399 12.4602 3.5709 13.3701C3.94781 14.2801 4.50026 15.1069 5.1967 15.8033M3 10.5C3 9.51509 3.19399 8.53982 3.5709 7.62987C3.94781 6.71993 4.50026 5.89314 5.1967 5.1967M3 10.5H6.33333M5.1967 15.8033C5.89314 16.4997 6.71993 17.0522 7.62987 17.4291C8.53982 17.806 9.51509 18 10.5 18M5.1967 15.8033L7.55372 13.4463M10.5 18C11.4849 18 12.4602 17.806 13.3701 17.4291C14.2801 17.0522 15.1069 16.4997 15.8033 15.8033M10.5 18V14.6667M15.8033 15.8033C16.4997 15.1069 17.0522 14.2801 17.4291 13.3701C17.806 12.4602 18 11.4849 18 10.5M15.8033 15.8033L13.4463 13.4463M18 10.5C18 9.51509 17.806 8.53982 17.4291 7.62987C17.0522 6.71993 16.4997 5.89314 15.8033 5.1967M18 10.5H14.6667M15.8033 5.1967C15.1069 4.50026 14.2801 3.94781 13.3701 3.5709C12.4602 3.19399 11.4849 3 10.5 3M15.8033 5.1967L13.4463 7.55372M10.5 3C9.51509 3 8.53982 3.19399 7.62987 3.5709C6.71993 3.94781 5.89314 4.50026 5.1967 5.1967M10.5 3V6.33333M5.1967 5.1967L7.55372 7.55372M6.33333 10.5C6.33333 11.6051 6.77232 12.6649 7.55372 13.4463M6.33333 10.5C6.33333 9.39493 6.77232 8.33512 7.55372 7.55372M7.55372 13.4463C8.33512 14.2277 9.39493 14.6667 10.5 14.6667M10.5 14.6667C11.6051 14.6667 12.6649 14.2277 13.4463 13.4463M13.4463 13.4463C14.2277 12.6649 14.6667 11.6051 14.6667 10.5M14.6667 10.5C14.6667 9.39493 14.2277 8.33512 13.4463 7.55372M13.4463 7.55372C12.6649 6.77232 11.6051 6.33333 10.5 6.33333M10.5 6.33333C9.39493 6.33333 8.33512 6.77232 7.55372 7.55372" stroke="#B205AD" stroke-width="2" stroke-linecap="round" stroke-linejoin="round"/>
</svg>
