<svg width="25" height="24" viewBox="0 0 25 24" fill="none" xmlns="http://www.w3.org/2000/svg">
<path d="M13.7001 22C9.19709 22 5.25509 18.96 4.09009 14.587C2.92509 10.214 4.82709 5.59899 8.72809 3.33699C10.6243 2.23717 12.8319 1.79741 15.0048 2.08658C17.1778 2.37576 19.1935 3.37753 20.7361 4.93499L17.4011 8.30199C16.9184 7.81817 16.3448 7.43456 15.7133 7.17321C15.0818 6.91187 14.4048 6.77795 13.7214 6.77916C13.0379 6.78036 12.3615 6.91668 11.7309 7.18025C11.1003 7.44383 10.5281 7.82947 10.0471 8.31499C9.07264 9.2985 8.52596 10.627 8.52596 12.0115C8.52596 13.396 9.07264 14.7245 10.0471 15.708C10.5281 16.1935 11.1003 16.5792 11.7309 16.8427C12.3615 17.1063 13.0379 17.2426 13.7214 17.2438C14.4048 17.245 15.0818 17.1111 15.7133 16.8498C16.3448 16.5884 16.9184 16.2048 17.4011 15.721L20.7501 19.088C19.8263 20.016 18.7275 20.7514 17.5172 21.2512C16.307 21.7511 15.0095 22.0056 13.7001 22Z" stroke="#B205AD" stroke-width="2" stroke-linecap="round" stroke-linejoin="round"/>
</svg>
