<svg width="20" height="20" viewBox="0 0 20 20" fill="none" xmlns="http://www.w3.org/2000/svg">
<path d="M7.86842 7.85999C7.57513 8.3379 7.45103 8.90054 7.51605 9.45748C7.58108 10.0144 7.83144 10.5333 8.22693 10.9308C8.62241 11.3283 9.14004 11.5814 9.69665 11.6492C10.2533 11.7171 10.8165 11.5958 11.2959 11.305M12.5001 9.16666C12.5001 8.50362 12.2367 7.86773 11.7678 7.39889C11.299 6.93005 10.6631 6.66666 10.0001 6.66666M14.2933 14.3017L11.1783 17.4167C10.8658 17.7289 10.4422 17.9043 10.0004 17.9043C9.55868 17.9043 9.13502 17.7289 8.8225 17.4167L5.28584 13.8809C4.10738 12.7025 3.41303 11.1254 3.33961 9.46046C3.26619 7.79552 3.81902 6.16346 4.88917 4.88588M6.70584 3.36921C7.97544 2.64846 9.44646 2.36422 10.8932 2.5601C12.3399 2.75598 13.6824 3.42117 14.7146 4.45358C15.7468 5.486 16.4118 6.82859 16.6074 8.27535C16.803 9.7221 16.5185 11.1931 15.7975 12.4625M2.5 2.49999L17.5 17.5" stroke="#FFC9F3" stroke-width="2" stroke-linecap="round" stroke-linejoin="round"/>
</svg>
