<svg width="8" height="8" viewBox="0 0 8 8" fill="none" xmlns="http://www.w3.org/2000/svg">
<g clip-path="url(#clip0_117_805)">
<path d="M7.00002 1L4.83336 7C4.81873 7.03191 4.79525 7.05896 4.76571 7.07792C4.73616 7.09688 4.7018 7.10696 4.66669 7.10696C4.63158 7.10696 4.59722 7.09688 4.56767 7.07792C4.53813 7.05896 4.51465 7.03191 4.50002 7L3.33336 4.66667L1.00002 3.5C0.96811 3.48538 0.941066 3.4619 0.922105 3.43235C0.903145 3.40281 0.893066 3.36844 0.893066 3.33333C0.893066 3.29823 0.903145 3.26386 0.922105 3.23432C0.941066 3.20477 0.96811 3.18129 1.00002 3.16667L7.00002 1Z" stroke="#FFC9F3" stroke-linecap="round" stroke-linejoin="round"/>
</g>
<defs>
<clipPath id="clip0_117_805">
<rect width="8" height="8" fill="white"/>
</clipPath>
</defs>
</svg>
