<svg width="25" height="24" viewBox="0 0 25 24" fill="none" xmlns="http://www.w3.org/2000/svg">
<path d="M14.25 15V17C14.25 17.2652 14.1446 17.5196 13.9571 17.7071C13.7696 17.8946 13.5152 18 13.25 18H6.25L3.25 21V11C3.25 10.7348 3.35536 10.4804 3.54289 10.2929C3.73043 10.1054 3.98478 10 4.25 10H6.25M21.25 14L18.25 11H11.25C10.9848 11 10.7304 10.8946 10.5429 10.7071C10.3554 10.5196 10.25 10.2652 10.25 10V4C10.25 3.73478 10.3554 3.48043 10.5429 3.29289C10.7304 3.10536 10.9848 3 11.25 3H20.25C20.5152 3 20.7696 3.10536 20.9571 3.29289C21.1446 3.48043 21.25 3.73478 21.25 4V14Z" stroke="#B205AD" stroke-width="2" stroke-linecap="round" stroke-linejoin="round"/>
</svg>
