<svg width="25" height="24" viewBox="0 0 25 24" fill="none" xmlns="http://www.w3.org/2000/svg">
<path d="M14.5 4V8H8.5V4M6.5 4H16.5L20.5 8V18C20.5 18.5304 20.2893 19.0391 19.9142 19.4142C19.5391 19.7893 19.0304 20 18.5 20H6.5C5.96957 20 5.46086 19.7893 5.08579 19.4142C4.71071 19.0391 4.5 18.5304 4.5 18V6C4.5 5.46957 4.71071 4.96086 5.08579 4.58579C5.46086 4.21071 5.96957 4 6.5 4ZM10.5 14C10.5 14.5304 10.7107 15.0391 11.0858 15.4142C11.4609 15.7893 11.9696 16 12.5 16C13.0304 16 13.5391 15.7893 13.9142 15.4142C14.2893 15.0391 14.5 14.5304 14.5 14C14.5 13.4696 14.2893 12.9609 13.9142 12.5858C13.5391 12.2107 13.0304 12 12.5 12C11.9696 12 11.4609 12.2107 11.0858 12.5858C10.7107 12.9609 10.5 13.4696 10.5 14Z" stroke="#B205AD" stroke-width="2" stroke-linecap="round" stroke-linejoin="round"/>
</svg>
