<svg width="16" height="16" viewBox="0 0 16 16" fill="none" xmlns="http://www.w3.org/2000/svg">
<path d="M4.00008 14H12.0001C12.3537 14 12.6928 13.8595 12.9429 13.6095C13.1929 13.3594 13.3334 13.0203 13.3334 12.6667V8.78667C13.3334 8.26919 13.2129 7.75883 12.9814 7.296L12.3521 6.03733C12.1206 5.5745 12.0001 5.06414 12.0001 4.54667V3.33333C12.0001 2.97971 11.8596 2.64057 11.6096 2.39052C11.3595 2.14048 11.0204 2 10.6667 2H5.33341C4.97979 2 4.64065 2.14048 4.39061 2.39052C4.14056 2.64057 4.00008 2.97971 4.00008 3.33333V5.33333M4.00008 14C3.64646 14 3.30732 13.8595 3.05727 13.6095C2.80722 13.3594 2.66675 13.0203 2.66675 12.6667V8.78667C2.66678 8.26919 2.7873 7.75883 3.01875 7.296L4.00008 5.33333M4.00008 14C4.3537 14 4.69284 13.8595 4.94289 13.6095C5.19294 13.3594 5.33341 13.0203 5.33341 12.6667V8.78667C5.33338 8.26919 5.21286 7.75883 4.98141 7.296L4.00008 5.33333M7.33341 4.66667H8.66675M8.00008 10C8.00008 10.3536 8.14056 10.6928 8.39061 10.9428C8.64065 11.1929 8.97979 11.3333 9.33341 11.3333C9.68704 11.3333 10.0262 11.1929 10.2762 10.9428C10.5263 10.6928 10.6667 10.3536 10.6667 10C10.6667 9.64638 10.5263 9.30724 10.2762 9.05719C10.0262 8.80714 9.68704 8.66667 9.33341 8.66667C8.97979 8.66667 8.64065 8.80714 8.39061 9.05719C8.14056 9.30724 8.00008 9.64638 8.00008 10Z" stroke="#FFC9F3" stroke-linecap="round" stroke-linejoin="round"/>
</svg>
