<svg width="40" height="41" viewBox="0 0 40 41" fill="none" xmlns="http://www.w3.org/2000/svg">
<path d="M10.0001 29.8333L6.66675 28V23.8333M6.66675 17.1667V13M6.66675 13L10.0001 11.1667M6.66675 13L10.0001 14.8333M16.6667 7.33333L20.0001 5.5L23.3334 7.33333M30.0001 11.1667L33.3334 13M33.3334 13V17.1667M33.3334 13L30.0001 14.8333M33.3334 23.8333V28L30.0001 29.8667M23.3334 33.6667L20.0001 35.5M20.0001 35.5L16.6667 33.6667M20.0001 35.5V31.3333M20.0001 20.5L23.3334 18.6667M20.0001 20.5V24.6667M20.0001 20.5L16.6667 18.6333" stroke="#FFC9F3" stroke-width="4" stroke-linecap="round" stroke-linejoin="round"/>
</svg>
