<svg width="41" height="41" viewBox="0 0 41 41" fill="none" xmlns="http://www.w3.org/2000/svg">
<path fill-rule="evenodd" clip-rule="evenodd" d="M19.536 3.74757C20.1362 3.41748 20.8635 3.41748 21.4637 3.74757L24.797 5.5809C25.7649 6.11321 26.1179 7.32933 25.5856 8.29717C25.0533 9.26501 23.8372 9.61808 22.8693 9.08576L20.4998 7.78254L18.1303 9.08576C17.1625 9.61808 15.9464 9.26501 15.4141 8.29717C14.8818 7.32933 15.2348 6.11321 16.2027 5.5809L19.536 3.74757ZM12.2523 10.2028C12.7846 11.1707 12.4315 12.3868 11.4637 12.9191L11.3166 13L11.4637 13.0809C12.4315 13.6132 12.7846 14.8293 12.2523 15.7972C11.72 16.765 10.5038 17.1181 9.536 16.5858L9.1665 16.3825V17.1667C9.1665 18.2712 8.27107 19.1667 7.1665 19.1667C6.06193 19.1667 5.1665 18.2712 5.1665 17.1667V13C5.1665 12.2706 5.56357 11.5991 6.20267 11.2476L9.536 9.41422C10.5038 8.88191 11.72 9.23498 12.2523 10.2028ZM28.7474 10.2028C29.2797 9.23498 30.4958 8.88191 31.4637 9.41422L34.797 11.2476C35.4361 11.5991 35.8332 12.2706 35.8332 13V17.1667C35.8332 18.2712 34.9377 19.1667 33.8332 19.1667C32.7286 19.1667 31.8332 18.2712 31.8332 17.1667V16.3825L31.4637 16.5858C30.4958 17.1181 29.2797 16.765 28.7474 15.7972C28.2151 14.8293 28.5682 13.6132 29.536 13.0809L29.6831 13L29.536 12.9191C28.5682 12.3868 28.2151 11.1707 28.7474 10.2028ZM7.1665 21.8333C8.27107 21.8333 9.1665 22.7288 9.1665 23.8333V26.8175L11.4637 28.0809C12.4315 28.6132 12.7846 29.8293 12.2523 30.7972C11.72 31.765 10.5038 32.1181 9.536 31.5858L6.20267 29.7524C5.56357 29.4009 5.1665 28.7294 5.1665 28V23.8333C5.1665 22.7288 6.06193 21.8333 7.1665 21.8333ZM33.8332 21.8333C34.9377 21.8333 35.8332 22.7288 35.8332 23.8333V28C35.8332 28.7239 35.442 29.3913 34.8104 29.745L31.477 31.6117C30.5133 32.1514 29.2945 31.8076 28.7548 30.8439C28.2151 29.8801 28.5589 28.6614 29.5226 28.1217L31.8332 26.8278V23.8333C31.8332 22.7288 32.7286 21.8333 33.8332 21.8333ZM20.4998 29.3333C21.6044 29.3333 22.4998 30.2288 22.4998 31.3333V32.1174L22.8693 31.9142C23.8372 31.3819 25.0533 31.735 25.5856 32.7028C26.1179 33.6707 25.7649 34.8868 24.797 35.4191L21.4637 37.2524C20.8635 37.5825 20.1362 37.5825 19.536 37.2524L16.2027 35.4191C15.2348 34.8868 14.8818 33.6707 15.4141 32.7028C15.9464 31.735 17.1625 31.3819 18.1303 31.9142L18.4998 32.1174V31.3333C18.4998 30.2288 19.3953 29.3333 20.4998 29.3333Z" fill="#B205AD"/>
<path d="M17.2044 24.6933C16.5973 24.6933 16.0721 24.5836 15.6291 24.3642C15.186 24.1366 14.8414 23.8237 14.5952 23.4255C14.3573 23.0192 14.2383 22.5478 14.2383 22.0114V18.2324C14.2383 17.696 14.3573 17.2287 14.5952 16.8305C14.8414 16.4241 15.186 16.1112 15.6291 15.8918C16.0721 15.6643 16.5932 15.5505 17.1921 15.5505C17.7993 15.5505 18.3203 15.6643 18.7552 15.8918C19.1983 16.1112 19.5388 16.4241 19.7767 16.8305C20.0229 17.2287 20.146 17.696 20.146 18.2324V22.0114C20.146 22.5478 20.0229 23.0192 19.7767 23.4255C19.5388 23.8237 19.1983 24.1366 18.7552 24.3642C18.3203 24.5836 17.8034 24.6933 17.2044 24.6933ZM17.1921 23.1086C17.5778 23.1086 17.8773 23.011 18.0906 22.816C18.3121 22.621 18.4229 22.3528 18.4229 22.0114V18.2324C18.4229 17.891 18.3121 17.6229 18.0906 17.4278C17.8773 17.2328 17.5778 17.1352 17.1921 17.1352C16.8065 17.1352 16.5029 17.2328 16.2814 17.4278C16.068 17.6229 15.9614 17.891 15.9614 18.2324V22.0114C15.9614 22.3528 16.0721 22.621 16.2937 22.816C16.5152 23.011 16.8147 23.1086 17.1921 23.1086ZM17.1921 20.963C16.9378 20.963 16.7285 20.8818 16.5644 20.7192C16.4085 20.5567 16.3306 20.3454 16.3306 20.0853C16.3306 19.8253 16.4085 19.618 16.5644 19.4636C16.7285 19.3092 16.9378 19.232 17.1921 19.232C17.4547 19.232 17.6639 19.3092 17.8198 19.4636C17.9757 19.618 18.0537 19.8253 18.0537 20.0853C18.0537 20.3454 17.9757 20.5567 17.8198 20.7192C17.6639 20.8818 17.4547 20.963 17.1921 20.963Z" fill="#B205AD"/>
<path d="M21.1996 24.5714L23.5381 21.0971L21.3596 17.8667H23.415L24.2519 19.2076C24.3176 19.3133 24.3791 19.4311 24.4366 19.5611C24.494 19.6912 24.5391 19.7968 24.5719 19.8781C24.6048 19.7968 24.6499 19.6912 24.7073 19.5611C24.773 19.4311 24.8345 19.3133 24.8919 19.2076L25.7289 17.8667H27.7842L25.6181 21.0971L27.9442 24.5714H25.8889L24.9042 22.9867C24.8386 22.8729 24.773 22.755 24.7073 22.6331C24.6499 22.5031 24.6048 22.3975 24.5719 22.3162C24.5391 22.3975 24.494 22.5031 24.4366 22.6331C24.3791 22.755 24.3176 22.8729 24.2519 22.9867L23.255 24.5714H21.1996Z" fill="#B205AD"/>
</svg>
