<svg width="16" height="16" viewBox="0 0 16 16" fill="none" xmlns="http://www.w3.org/2000/svg">
<path d="M1.33325 13.3333C1.4847 13.5443 1.68523 13.7153 1.91753 13.8314C2.14984 13.9476 2.40692 14.0054 2.66659 14C2.92625 14.0054 3.18333 13.9476 3.41564 13.8314C3.64794 13.7153 3.84847 13.5443 3.99992 13.3333C4.15137 13.1223 4.3519 12.9514 4.5842 12.8352C4.8165 12.7191 5.07359 12.6612 5.33325 12.6667C5.59292 12.6612 5.85 12.7191 6.0823 12.8352C6.3146 12.9514 6.51514 13.1223 6.66659 13.3333C6.81803 13.5443 7.01857 13.7153 7.25087 13.8314C7.48317 13.9476 7.74025 14.0054 7.99992 14C8.25958 14.0054 8.51667 13.9476 8.74897 13.8314C8.98127 13.7153 9.18181 13.5443 9.33325 13.3333C9.4847 13.1223 9.68523 12.9514 9.91753 12.8352C10.1498 12.7191 10.4069 12.6612 10.6666 12.6667C10.9262 12.6612 11.1833 12.7191 11.4156 12.8352C11.6479 12.9514 11.8485 13.1223 11.9999 13.3333C12.1514 13.5443 12.3519 13.7153 12.5842 13.8314C12.8165 13.9476 13.0736 14.0054 13.3333 14C13.5929 14.0054 13.85 13.9476 14.0823 13.8314C14.3146 13.7153 14.5151 13.5443 14.6666 13.3333M1.33325 10.6667C1.4847 10.8777 1.68523 11.0486 1.91753 11.1648C2.14984 11.2809 2.40692 11.3388 2.66659 11.3333C2.92625 11.3388 3.18333 11.2809 3.41564 11.1648C3.64794 11.0486 3.84847 10.8777 3.99992 10.6667C4.15137 10.4557 4.3519 10.2847 4.5842 10.1686C4.8165 10.0524 5.07359 9.99457 5.33325 10C5.59292 9.99457 5.85 10.0524 6.0823 10.1686C6.3146 10.2847 6.51514 10.4557 6.66659 10.6667C6.81803 10.8777 7.01857 11.0486 7.25087 11.1648C7.48317 11.2809 7.74025 11.3388 7.99992 11.3333C8.25958 11.3388 8.51667 11.2809 8.74897 11.1648C8.98127 11.0486 9.18181 10.8777 9.33325 10.6667C9.4847 10.4557 9.68523 10.2847 9.91753 10.1686C10.1498 10.0524 10.4069 9.99457 10.6666 10C10.9262 9.99457 11.1833 10.0524 11.4156 10.1686C11.6479 10.2847 11.8485 10.4557 11.9999 10.6667C12.1514 10.8777 12.3519 11.0486 12.5842 11.1648C12.8165 11.2809 13.0736 11.3388 13.3333 11.3333C13.5929 11.3388 13.85 11.2809 14.0823 11.1648C14.3146 11.0486 14.5151 10.8777 14.6666 10.6667M9.99992 8V3C9.99992 2.73478 10.1053 2.48043 10.2928 2.29289C10.4803 2.10536 10.7347 2 10.9999 2C11.2651 2 11.5195 2.10536 11.707 2.29289C11.8946 2.48043 11.9999 2.73478 11.9999 3M5.99992 8V3C5.99992 2.73478 5.89456 2.48043 5.70703 2.29289C5.51949 2.10536 5.26514 2 4.99992 2C4.7347 2 4.48035 2.10536 4.29281 2.29289C4.10528 2.48043 3.99992 2.73478 3.99992 3M9.99992 3.33333H5.99992M5.99992 6.66667H9.99992" stroke="#FFC9F3" stroke-linecap="round" stroke-linejoin="round"/>
</svg>
