<svg width="25" height="24" viewBox="0 0 25 24" fill="none" xmlns="http://www.w3.org/2000/svg">
<path d="M20.0001 12.5719L12.5001 19.9999L5.00006 12.5719C4.50536 12.0905 4.1157 11.5119 3.8556 10.8726C3.59551 10.2332 3.47062 9.54688 3.48879 8.85687C3.50697 8.16685 3.66782 7.48807 3.96121 6.86327C4.25461 6.23847 4.67419 5.68119 5.19354 5.22651C5.71289 4.77184 6.32076 4.42962 6.97887 4.22141C7.63697 4.01321 8.33106 3.94352 9.01743 4.01673C9.70379 4.08995 10.3676 4.30449 10.9669 4.64684C11.5663 4.98919 12.0883 5.45193 12.5001 6.00593C12.9136 5.45595 13.4362 4.99725 14.0352 4.65854C14.6341 4.31982 15.2966 4.10838 15.981 4.03745C16.6654 3.96652 17.3571 4.03763 18.0128 4.24632C18.6685 4.45502 19.2741 4.79681 19.7916 5.2503C20.3091 5.70379 20.7275 6.25922 21.0205 6.88182C21.3135 7.50443 21.4748 8.18082 21.4944 8.86864C21.5139 9.55647 21.3913 10.2409 21.1342 10.8792C20.8771 11.5174 20.491 12.0958 20.0001 12.5779M12.5 6L9.20697 9.293C9.0195 9.48053 8.91418 9.73484 8.91418 10C8.91418 10.2652 9.0195 10.5195 9.20697 10.707L9.74997 11.25C10.44 11.94 11.56 11.94 12.25 11.25L13.25 10.25C13.8467 9.65327 14.6561 9.31803 15.5 9.31803C16.3439 9.31803 17.1532 9.65327 17.75 10.25L20 12.5M13 15.5L15 17.5M15.5 13L17.5 15" stroke="#FFC9F3" stroke-width="2" stroke-linecap="round" stroke-linejoin="round"/>
</svg>
