<svg width="16" height="16" viewBox="0 0 16 16" fill="none" xmlns="http://www.w3.org/2000/svg">
<path d="M8 12.3333L6 11.3333M6 11.3333L2 13.3333V4.66666L6 2.66666M6 11.3333V2.66666M6 2.66666L10 4.66666M10 4.66666L14 2.66666V7.66666M10 4.66666V8.33332M12.6667 12V12.0067M14.0807 13.414C14.3604 13.1343 14.551 12.7779 14.6282 12.39C14.7054 12.002 14.6658 11.5998 14.5145 11.2343C14.3631 10.8688 14.1068 10.5565 13.7779 10.3367C13.449 10.1169 13.0623 9.99956 12.6667 9.99956C12.2711 9.99956 11.8844 10.1169 11.5555 10.3367C11.2266 10.5565 10.9702 10.8688 10.8189 11.2343C10.6675 11.5998 10.6279 12.002 10.7051 12.39C10.7824 12.7779 10.9729 13.1343 11.2527 13.414C11.5313 13.6933 12.0027 14.1107 12.6667 14.6667C13.3673 14.0733 13.8393 13.656 14.0807 13.414Z" stroke="#FFC9F3" stroke-linecap="round" stroke-linejoin="round"/>
</svg>
