<svg width="25" height="24" viewBox="0 0 25 24" fill="none" xmlns="http://www.w3.org/2000/svg">
<path d="M8.09308 12.4141L7.38608 13.1211C6.82342 13.6837 6.50732 14.4468 6.50732 15.2426C6.50732 16.0383 6.82342 16.8014 7.38608 17.3641C7.94874 17.9267 8.71186 18.2428 9.50758 18.2428C10.3033 18.2428 11.0664 17.9267 11.6291 17.3641L12.3361 16.6571M20.1141 4.63611C20.489 5.01117 20.6997 5.51978 20.6997 6.05011C20.6997 6.58044 20.489 7.08906 20.1141 7.46411C20.5424 8.66024 20.637 9.95039 20.388 11.1962C20.1389 12.4421 19.5554 13.5966 18.7001 14.5361L16.5781 16.6561C16.1917 17.149 15.9263 17.7258 15.8035 18.3399C15.6807 18.9541 15.7039 19.5885 15.8711 20.1921L4.55811 8.88011C5.16155 9.04716 5.79579 9.07022 6.40977 8.94742C7.02375 8.82463 7.60033 8.55941 8.09311 8.17311L10.2141 6.05011C11.1536 5.19483 12.3082 4.61136 13.554 4.36226C14.7998 4.11316 16.09 4.20783 17.2861 4.63611C17.6612 4.26117 18.1698 4.05054 18.7001 4.05054C19.2304 4.05054 19.739 4.26117 20.1141 4.63611Z" stroke="#B205AD" stroke-width="2" stroke-linecap="round" stroke-linejoin="round"/>
</svg>
