<svg width="22" height="21" viewBox="0 0 22 21" fill="none" xmlns="http://www.w3.org/2000/svg">
<path d="M6.4375 6.5625C6.4375 6.79456 6.52969 7.01712 6.69378 7.18122C6.85788 7.34531 7.08044 7.4375 7.3125 7.4375C7.54456 7.4375 7.76712 7.34531 7.93122 7.18122C8.09531 7.01712 8.1875 6.79456 8.1875 6.5625C8.1875 6.33044 8.09531 6.10788 7.93122 5.94378C7.76712 5.77969 7.54456 5.6875 7.3125 5.6875C7.08044 5.6875 6.85788 5.77969 6.69378 5.94378C6.52969 6.10788 6.4375 6.33044 6.4375 6.5625Z" stroke="#1A011A" stroke-width="2" stroke-linecap="round" stroke-linejoin="round"/>
<path d="M3.375 5.25V9.7755C3.3751 10.2396 3.55954 10.6846 3.88775 11.0128L10.634 17.759C11.0295 18.1544 11.5658 18.3765 12.125 18.3765C12.6842 18.3765 13.2205 18.1544 13.616 17.759L18.509 12.866C18.9044 12.4705 19.1265 11.9342 19.1265 11.375C19.1265 10.8158 18.9044 10.2795 18.509 9.884L11.7628 3.13775C11.4346 2.80954 10.9896 2.6251 10.5255 2.625H6C5.30381 2.625 4.63613 2.90156 4.14384 3.39384C3.65156 3.88613 3.375 4.55381 3.375 5.25Z" stroke="#1A011A" stroke-width="2" stroke-linecap="round" stroke-linejoin="round"/>
<path d="M11.6875 12.1161L10.375 13.125L10.8405 11.5001L9.5 10.5H11.1643L11.6875 8.92496L12.2108 10.5H13.875L12.5345 11.5001L13 13.125L11.6875 12.1161Z" stroke="#1A011A" stroke-width="2" stroke-linecap="round" stroke-linejoin="round"/>
</svg>
