<svg width="25" height="24" viewBox="0 0 25 24" fill="none" xmlns="http://www.w3.org/2000/svg">
<path d="M14.75 15V17C14.75 17.2652 14.6446 17.5196 14.4571 17.7071C14.2696 17.8946 14.0152 18 13.75 18H6.75L3.75 21V11C3.75 10.7348 3.85536 10.4804 4.04289 10.2929C4.23043 10.1054 4.48478 10 4.75 10H6.75M21.75 14L18.75 11H11.75C11.4848 11 11.2304 10.8946 11.0429 10.7071C10.8554 10.5196 10.75 10.2652 10.75 10V4C10.75 3.73478 10.8554 3.48043 11.0429 3.29289C11.2304 3.10536 11.4848 3 11.75 3H20.75C21.0152 3 21.2696 3.10536 21.4571 3.29289C21.6446 3.48043 21.75 3.73478 21.75 4V14Z" stroke="#FFC9F3" stroke-width="2" stroke-linecap="round" stroke-linejoin="round"/>
</svg>
