<svg width="19" height="19" viewBox="0 0 19 19" fill="none" xmlns="http://www.w3.org/2000/svg">
<path d="M13.5 6.5V4.25C13.5 4.05109 13.421 3.86032 13.2803 3.71967C13.1397 3.57902 12.9489 3.5 12.75 3.5H5.25C4.85218 3.5 4.47064 3.65804 4.18934 3.93934C3.90804 4.22064 3.75 4.60218 3.75 5M3.75 5C3.75 5.39782 3.90804 5.77936 4.18934 6.06066C4.47064 6.34196 4.85218 6.5 5.25 6.5H14.25C14.4489 6.5 14.6397 6.57902 14.7803 6.71967C14.921 6.86032 15 7.05109 15 7.25V9.5M3.75 5V14C3.75 14.3978 3.90804 14.7794 4.18934 15.0607C4.47064 15.342 4.85218 15.5 5.25 15.5H14.25C14.4489 15.5 14.6397 15.421 14.7803 15.2803C14.921 15.1397 15 14.9489 15 14.75V12.5M15.75 9.5V12.5H12.75C12.3522 12.5 11.9706 12.342 11.6893 12.0607C11.408 11.7794 11.25 11.3978 11.25 11C11.25 10.6022 11.408 10.2206 11.6893 9.93934C11.9706 9.65804 12.3522 9.5 12.75 9.5H15.75Z" stroke="#FFC9F3" stroke-width="2" stroke-linecap="round" stroke-linejoin="round"/>
</svg>
