<svg width="16" height="16" viewBox="0 0 16 16" fill="none" xmlns="http://www.w3.org/2000/svg">
<path d="M12.6667 2.66666C13.2347 2.66666 13.5314 3.32399 13.1887 3.74866L13.1381 3.80466L10.6101 6.33332L13.1381 8.86199C13.5401 9.26332 13.2847 9.93799 12.7427 9.99599L12.6667 9.99999H4.00008V14C4.00006 14.1633 3.94011 14.3209 3.8316 14.4429C3.7231 14.5649 3.57358 14.6429 3.41141 14.662L3.33341 14.6667C3.17013 14.6666 3.01252 14.6067 2.8905 14.4982C2.76848 14.3897 2.69052 14.2402 2.67141 14.078L2.66675 14V3.33332C2.66677 3.17003 2.72672 3.01243 2.83522 2.89041C2.94373 2.76839 3.09325 2.69043 3.25541 2.67132L3.33341 2.66666H12.6667Z" fill="#FFC9F3"/>
</svg>
