<svg width="17" height="16" viewBox="0 0 17 16" fill="none" xmlns="http://www.w3.org/2000/svg">
<path d="M10.0833 10V11.3333C10.0833 11.5101 10.0131 11.6797 9.88807 11.8047C9.76305 11.9298 9.59348 12 9.41667 12H4.75L2.75 14V7.33333C2.75 7.15652 2.82024 6.98695 2.94526 6.86193C3.07029 6.7369 3.23986 6.66667 3.41667 6.66667H4.75M14.75 9.33333L12.75 7.33333H8.08333C7.90652 7.33333 7.73695 7.2631 7.61193 7.13807C7.4869 7.01305 7.41667 6.84348 7.41667 6.66667V2.66667C7.41667 2.48986 7.4869 2.32029 7.61193 2.19526C7.73695 2.07024 7.90652 2 8.08333 2H14.0833C14.2601 2 14.4297 2.07024 14.5547 2.19526C14.6798 2.32029 14.75 2.48986 14.75 2.66667V9.33333Z" stroke="#FFC9F3" stroke-linecap="round" stroke-linejoin="round"/>
</svg>
