<svg width="25" height="24" viewBox="0 0 25 24" fill="none" xmlns="http://www.w3.org/2000/svg">
<path d="M5.75 7H6.75C7.28043 7 7.78914 6.78929 8.16421 6.41421C8.53929 6.03914 8.75 5.53043 8.75 5C8.75 4.73478 8.85536 4.48043 9.04289 4.29289C9.23043 4.10536 9.48478 4 9.75 4H15.75C16.0152 4 16.2696 4.10536 16.4571 4.29289C16.6446 4.48043 16.75 4.73478 16.75 5C16.75 5.53043 16.9607 6.03914 17.3358 6.41421C17.7109 6.78929 18.2196 7 18.75 7H19.75C20.2804 7 20.7891 7.21071 21.1642 7.58579C21.5393 7.96086 21.75 8.46957 21.75 9V18C21.75 18.5304 21.5393 19.0391 21.1642 19.4142C20.7891 19.7893 20.2804 20 19.75 20H5.75C5.21957 20 4.71086 19.7893 4.33579 19.4142C3.96071 19.0391 3.75 18.5304 3.75 18V9C3.75 8.46957 3.96071 7.96086 4.33579 7.58579C4.71086 7.21071 5.21957 7 5.75 7Z" stroke="#ffc9f3" stroke-width="2" stroke-linecap="round" stroke-linejoin="round"/>
<path d="M9.75 13C9.75 13.7956 10.0661 14.5587 10.6287 15.1213C11.1913 15.6839 11.9544 16 12.75 16C13.5456 16 14.3087 15.6839 14.8713 15.1213C15.4339 14.5587 15.75 13.7956 15.75 13C15.75 12.2044 15.4339 11.4413 14.8713 10.8787C14.3087 10.3161 13.5456 10 12.75 10C11.9544 10 11.1913 10.3161 10.6287 10.8787C10.0661 11.4413 9.75 12.2044 9.75 13Z" stroke="#ffc9f3" stroke-width="2" stroke-linecap="round" stroke-linejoin="round"/>
</svg>
