<svg width="40" height="40" viewBox="0 0 40 40" fill="none" xmlns="http://www.w3.org/2000/svg">
<path d="M5.64136 25.1787C5.64136 22.116 7.15756 18.4742 7.91516 17.0355C6.75807 13.3986 4.87857 5.78854 6.61419 4.44411C8.34984 3.09866 12.5404 7.56762 14.4178 9.96979C15.1848 9.56409 17.3592 8.75371 19.9237 8.75371C22.4884 8.75371 24.8991 9.56409 25.7847 9.96979C30.8354 4.31681 32.9489 3.93076 33.3732 4.44411C35.1586 6.69929 33.2976 13.7774 32.1437 17.0355C32.8887 18.2288 34.3752 21.5292 34.3752 25.1797C34.3752 29.7417 27.8187 36.2817 19.8957 36.2817C11.9733 36.2817 5.64136 29.008 5.64136 25.1787Z" fill="#EB9A2E"/>
<path fill-rule="evenodd" clip-rule="evenodd" d="M8.36802 15.1352C7.69014 12.8449 6.53925 7.9474 7.3517 6.68269C8.16415 5.41795 11.4222 8.5839 12.9498 10.3258C12.0701 11.0275 9.92047 12.9732 8.36802 15.1352ZM31.7976 15.1352C32.4744 12.8449 33.6264 7.9474 32.8138 6.68269C32.0004 5.41795 28.7434 8.5839 27.2158 10.3258C28.0956 11.0275 30.2451 12.9732 31.7976 15.1352Z" fill="#E58014"/>
<path d="M14.7957 18.298C14.037 18.4355 13.2651 18.485 12.495 18.446C12.3526 18.4425 12.2164 18.3867 12.1123 18.2893C12.0082 18.1923 11.9433 18.0602 11.9299 17.9182C11.8575 16.9807 12.2125 15.7293 13.2754 15.779C14.5505 15.8389 15.1073 16.7828 15.3028 17.559C15.3897 17.908 15.1456 18.235 14.7957 18.298ZM25.2592 18.298C26.1657 18.4637 27.0031 18.4772 27.5599 18.446C27.7024 18.4425 27.8386 18.3867 27.9427 18.2893C28.0467 18.1923 28.1117 18.0602 28.1251 17.9182C28.1974 16.9807 27.8424 15.7293 26.7797 15.779C25.5046 15.8389 24.9477 16.7828 24.7521 17.559C24.6652 17.908 24.9092 18.235 25.2592 18.298Z" fill="#FEFFF7"/>
<path d="M19.1204 36.0933C8.21931 34.4322 5.59359 28.1115 5.64226 25.1588C11.2756 24.7427 13.2068 26.9225 13.4676 28.064C13.6177 26.3252 15.0832 22.8458 19.7426 22.8458C24.4019 22.8458 25.8676 26.3243 26.0174 28.064C28.9009 24.5338 32.9144 24.9043 34.5612 25.5305C31.8951 34.3948 23.1571 36.2662 19.1204 36.0933Z" fill="#EAEAE8"/>
<path fill-rule="evenodd" clip-rule="evenodd" d="M21.4387 24.5203H18.4149C18.2119 24.522 18.0182 24.604 17.8761 24.7483C17.7337 24.8927 17.6546 25.0877 17.6561 25.2905V26.7828C17.7006 27.2662 18.1477 28.1903 19.5501 28.3457V29.8277C19.4571 29.914 19.3842 30.0203 19.3369 30.1382H17.5287V30.1577C17.3381 29.9812 17.1272 29.8278 16.9007 29.7003C16.8787 29.6885 16.8546 29.681 16.8297 29.6783C16.8051 29.676 16.7799 29.6783 16.7561 29.6857C16.7321 29.6927 16.7099 29.7047 16.6906 29.7203C16.6716 29.7363 16.6556 29.7558 16.644 29.7778C16.6198 29.8228 16.614 29.875 16.6283 29.924C16.6423 29.9728 16.6751 30.014 16.7196 30.0387C16.8406 30.106 17.0279 30.2252 17.1872 30.3637C17.2679 30.433 17.3372 30.5035 17.3881 30.5707C17.4397 30.639 17.4636 30.692 17.4687 30.726C17.4759 30.7653 17.4926 30.7985 17.5174 30.8255V31.6533C17.5174 31.7588 17.6022 31.8458 17.7067 31.8458C17.7574 31.8453 17.8057 31.8248 17.8412 31.7888C17.8767 31.7525 17.8966 31.704 17.8961 31.6533V30.5222H21.9616V31.6533C21.9616 31.7588 22.0464 31.8458 22.1509 31.8458C22.1761 31.8458 22.2009 31.8407 22.2241 31.8308C22.2472 31.8212 22.2682 31.8068 22.2859 31.789C22.3037 31.7712 22.3177 31.7498 22.3272 31.7267C22.3366 31.7035 22.3414 31.6785 22.3414 31.6533V30.7292C22.3441 30.718 22.3459 30.7065 22.3466 30.695L22.3497 30.6878C22.3632 30.6643 22.3791 30.6427 22.3972 30.6227C22.4457 30.5657 22.5182 30.4982 22.6074 30.428C22.7834 30.2862 22.9954 30.1455 23.1384 30.0605C23.1819 30.0342 23.2132 29.9917 23.2257 29.9423C23.2384 29.893 23.2311 29.8407 23.2056 29.7967C23.1932 29.775 23.1766 29.7558 23.1567 29.7407C23.1369 29.7255 23.1142 29.7143 23.0901 29.7082C23.0657 29.7015 23.0406 29.7002 23.0159 29.7037C22.9911 29.7072 22.9672 29.7155 22.9457 29.7283C22.7456 29.8483 22.5532 29.9815 22.3704 30.1268L22.3569 30.1372H20.4587C20.4202 30.0643 20.3694 29.9983 20.3086 29.9425V28.3538C21.7647 28.2255 22.1777 27.2743 22.1976 26.7828V25.2905C22.1991 25.0877 22.1197 24.8927 21.9776 24.7483C21.8352 24.604 21.6416 24.522 21.4387 24.5203ZM18.6589 31.0747L19.0606 31.5663L19.3667 31.2757L19.9227 31.8137L20.4969 31.2757L20.7651 31.5663L21.1357 31.0747H18.6589Z" fill="#000001"/>
<path d="M11.6778 19.57C11.12 19.3507 11.1138 19.8642 11.1811 20.1477V20.576C11.1813 20.9642 11.2988 21.343 11.518 21.6632C11.7372 21.9835 12.0479 22.23 12.4096 22.3708C14.1007 23.0062 16.9582 23.886 16.6457 22.9648C16.2318 21.7507 12.3754 19.8443 11.6778 19.57ZM28.2237 19.57C28.7806 19.3507 28.7879 19.8642 28.7206 20.1477V20.576C28.7202 20.9642 28.6029 21.343 28.3836 21.6632C28.1646 21.9835 27.8537 22.23 27.4921 22.3708C25.8009 23.0062 22.9422 23.886 23.2561 22.9648C23.6689 21.7507 27.5262 19.8443 28.2237 19.57Z" fill="black"/>
<path fill-rule="evenodd" clip-rule="evenodd" d="M14.4092 9.08492C12.7688 7.05432 10.7361 4.77842 8.22735 3.78177C2.3684 1.45308 6.51964 14.86 7.13339 16.7933C6.33024 18.3528 4.80884 22.0043 4.80884 25.0887C4.80884 31.766 14.4547 36.6667 20.0084 36.6667C25.8093 36.6667 35.1913 31.9267 35.1913 25.0887C35.1913 21.4693 33.8148 18.2763 33.0064 16.9143C34.2516 13.3666 36.5523 6.90632 34.0661 3.7176C32.3916 1.71494 26.4563 8.15347 25.7348 8.94624C24.6493 8.50222 22.3848 7.9713 19.9216 7.9713C17.5028 7.9713 15.4008 8.63367 14.4092 9.08492ZM6.60037 4.48967C6.46169 4.59525 6.33232 4.78465 6.23194 5.08894C6.13259 5.39114 6.07047 5.7782 6.04564 6.24187C5.99699 7.17024 6.10257 8.33975 6.30437 9.60137C6.70387 12.1215 7.47079 14.9356 8.05554 16.7572L8.10729 16.9143L8.02862 17.0592C7.26794 18.4918 5.75999 22.0955 5.75999 25.0887C5.75999 25.9558 6.12637 27.0673 6.83945 28.2668C7.54735 29.4592 8.57819 30.7073 9.86155 31.8427C12.4303 34.1133 16.0878 35.6317 20.0084 35.6317C23.9411 35.6317 27.4291 34.2885 30.0498 32.1118C32.6868 29.9218 34.2568 27.2217 34.2568 25.0887C34.2568 21.5003 32.7738 18.2433 32.0439 17.0842L31.9434 16.9238L32.0078 16.7458C32.5894 15.1188 33.3489 12.5376 33.7373 10.0888C33.9316 8.86447 34.0311 7.68772 33.9733 6.68484C33.9153 5.67885 33.7029 4.90782 33.3284 4.43379C33.3189 4.42655 33.2446 4.37687 33.0064 4.41309C32.7313 4.45552 32.3088 4.60767 31.7128 4.96782C30.5248 5.68505 28.7299 7.17542 26.1684 10.0133L25.9841 10.2182L25.7338 10.1044C24.8698 9.7121 22.4673 8.91209 19.9216 8.91209C17.9696 8.91209 15.9514 9.3302 14.2146 10.24C12.9654 8.65749 11.6086 7.13504 10.0499 5.84964C9.36374 5.2835 7.5867 3.73209 6.60037 4.48967Z" fill="black"/>
</svg>
