<svg width="25" height="24" viewBox="0 0 25 24" fill="none" xmlns="http://www.w3.org/2000/svg">
<path fill-rule="evenodd" clip-rule="evenodd" d="M21.913 16.005C22.4454 14.7868 22.7297 13.4744 22.7489 12.145C22.7682 10.8154 22.5221 9.49549 22.0251 8.26225C21.5281 7.029 20.7902 5.90725 19.8546 4.96261C18.9189 4.01796 17.8042 3.26941 16.5757 2.76075C15.3473 2.25207 14.0297 1.99349 12.7001 2.00012C11.3704 2.00676 10.0556 2.27848 8.83222 2.79939C7.6089 3.32031 6.50174 4.07995 5.5755 5.03388C4.64927 5.98782 3.92259 7.11687 3.43795 8.35503C2.48355 10.7933 2.52356 13.5087 3.5494 15.9177C4.57523 18.3269 6.50505 20.2376 8.92427 21.2393C11.3434 22.241 14.0592 22.2539 16.4877 21.2752C18.9164 20.2965 20.8643 18.4043 21.913 16.005ZM11.1254 3.13628C10.6067 3.21127 10.0317 3.36753 9.40045 3.61128C8.67093 3.88715 7.98151 4.25918 7.35044 4.71752C7.25044 4.79253 7.50045 4.90502 7.73795 4.86127C8.7192 4.68627 9.65669 4.77377 10.6316 4.88003C11.0379 4.93003 11.6504 5.05503 12.4817 5.26753C12.6692 5.31128 12.8379 5.21753 12.938 5.05503C13.2894 4.41862 13.7482 3.84773 14.2942 3.36753C14.3145 3.3525 14.3298 3.33163 14.3381 3.3077C14.3463 3.28378 14.3472 3.25791 14.3403 3.23352C14.3336 3.20913 14.3196 3.18737 14.3002 3.17112C14.2808 3.15488 14.2569 3.1449 14.2317 3.14252C13.6279 3.03032 13.0144 2.98005 12.4004 2.99252C11.9692 3.00503 11.5504 3.08002 11.1254 3.13628ZM12.6255 12.0862C12.7442 12.0862 12.8629 12.055 12.988 11.9926L14.3005 11.3675C15.515 10.7982 16.7811 10.3461 18.0817 10.0176C18.3754 9.94247 18.5941 9.66757 18.5566 9.37999C18.5254 9.13003 18.488 8.89877 18.4317 8.66752C18.3442 8.23002 17.9318 7.95502 17.5692 7.71128L17.4005 7.60502C16.5357 7.0047 15.6148 6.48978 14.6505 6.06753L13.813 5.71128C13.6629 5.64253 13.6254 5.53628 13.7004 5.39877C14.0567 4.71128 14.6629 3.96128 15.388 3.71753C16.2442 3.43002 17.0568 4.18628 17.4817 4.84253C17.838 5.40502 18.1317 6.01753 18.3567 6.69253C18.663 7.63002 18.8754 8.58628 18.9818 9.54872C19.0192 9.88632 19.0567 10.2613 19.0879 10.6738C19.1505 11.4737 19.1505 12.2863 19.1067 13.0863V13.1175C19.0879 13.4175 19.0693 13.7613 18.8566 13.9237C16.6264 15.6132 14.1634 16.971 11.5443 17.955C10.8817 18.2051 10.1755 18.4113 9.43794 18.5863C8.79419 18.7425 8.18795 18.8363 7.6067 18.8675C7.1692 18.8925 6.7567 18.8363 6.3817 18.6987C5.4442 18.3487 6.40045 17.0113 6.7567 16.5925L7.40045 15.8487C7.45045 15.7863 7.52544 15.6737 7.46295 15.5988C7.1817 15.2488 6.91294 15.2175 6.61295 15.5175C6.1442 15.9988 5.72545 16.5675 5.36295 17.2238C5.2567 17.405 5.05045 17.2863 4.96295 17.1488C4.08809 15.7574 3.58456 14.1651 3.50044 12.5237C3.47545 12.0175 3.31295 10.5175 3.87545 10.2301C4.87545 13.3987 7.81295 15.6362 10.663 17.0863C10.9318 17.2238 11.1943 17.3362 11.4442 17.4176C11.7567 17.5175 12.2692 17.2801 12.5129 17.1051C12.6192 17.0362 12.6504 16.9113 12.638 16.7925L12.5505 16.355C12.3067 15.2301 12.0504 14.0926 12.0504 12.9363C12.0504 12.18 12.0504 11.455 12.1505 10.6738C12.3255 9.40507 12.6317 8.19877 13.0004 6.96753C13.0379 6.84252 13.0004 6.74878 12.8817 6.69253C12.7357 6.62273 12.5797 6.57633 12.4193 6.55502C12.4004 6.55502 12.3816 6.55502 12.363 6.56752C12.2689 6.63036 12.202 6.72632 12.1754 6.83628C11.9832 7.46065 11.8247 8.09489 11.7004 8.73628C11.538 9.67384 11.3255 10.5488 11.2629 11.5113C11.2441 11.8737 11.0754 12.0487 10.7379 12.2551C10.0692 12.6488 9.5942 13.0363 9.0817 13.4175L8.1067 14.1363C7.86294 14.3113 7.6317 14.1113 7.45045 13.9551C5.99419 12.705 4.56296 10.8926 4.55044 8.86753C4.55044 7.89253 4.92545 6.96127 5.7567 6.41127C6.8192 5.71127 8.21294 5.51128 9.46295 5.58628C9.83801 5.61128 10.2067 5.64877 10.5755 5.70502C13.288 6.09877 15.863 7.36753 18.0193 9.08002C18.1068 9.14253 17.8941 9.21753 17.8566 9.22377C16.1067 9.67384 14.4192 10.3425 12.7942 11.1737C12.6255 11.2612 12.4067 12.0988 12.6317 12.0862H12.6255ZM11.4005 16.5112L11.6816 16.6238C11.7379 16.6425 11.7879 16.5925 11.7691 16.5426C11.4191 15.38 11.3316 14.155 11.238 12.9551C10.3005 13.5238 9.4692 14.1175 8.61295 14.7926C9.47144 15.4729 10.4071 16.0497 11.4005 16.5112ZM18.9879 6.01752C18.9255 5.88002 18.8817 5.74877 18.838 5.61752C18.7879 5.44878 19.0004 5.49878 19.063 5.55503C19.8537 6.35584 20.508 7.28053 21.0004 8.29252C21.038 8.36753 21.3005 8.95503 21.0818 8.93628C20.7692 8.91128 20.4379 8.89253 20.0816 8.88003C19.9874 8.88169 19.8955 8.85 19.8223 8.79053C19.7491 8.73107 19.6994 8.64766 19.6818 8.55502C19.5324 7.68888 19.3001 6.83912 18.9879 6.01752ZM21.3629 11.305C21.4567 11.1737 21.5316 11.0175 21.5942 10.8425C21.6817 10.5987 21.7692 10.3113 21.5817 10.0988C21.3192 9.80509 20.813 9.68624 20.4004 9.67997L20.1817 9.68624C20.1579 9.68653 20.1347 9.69353 20.1147 9.70651C20.0948 9.71949 20.079 9.73786 20.0691 9.75959C20.0593 9.78117 20.0558 9.80524 20.0592 9.82872C20.0625 9.85234 20.0724 9.87451 20.0879 9.89259L21.1504 11.3113C21.213 11.3801 21.3192 11.3738 21.3692 11.3113L21.3629 11.305ZM20.5568 12.3675C20.4067 12.5551 20.2317 12.7238 20.0318 12.8676C19.9504 12.9237 19.9317 12.7613 19.9317 12.7238C19.9443 12.3426 19.9443 11.9738 19.9317 11.6363C19.9317 11.5363 19.9317 11.4425 19.9443 11.3613C19.9566 11.2738 20.0692 11.2426 20.1254 11.3113C20.3004 11.5237 20.4504 11.755 20.5754 12.0113C20.6317 12.1238 20.638 12.2612 20.5568 12.3613V12.3675ZM19.5629 17.2801C20.1085 17.0591 20.5743 16.6781 20.8989 16.1872C21.2236 15.6962 21.3919 15.1185 21.3817 14.5301C21.3817 14.2176 21.3254 13.9363 21.2691 13.6425C21.2481 13.5087 21.1945 13.3819 21.113 13.2737C21.0886 13.2454 21.0548 13.2274 21.0177 13.2227C20.9808 13.218 20.9435 13.2274 20.9129 13.2488C20.6629 13.4363 20.4316 13.6425 20.1691 13.8738C19.9066 14.105 19.813 14.3488 19.7754 14.6737C19.6759 15.4869 19.5149 16.2912 19.2941 17.08C19.2504 17.2363 19.4316 17.3425 19.5629 17.2801ZM14.863 17.3925C16.2109 16.7145 17.5045 15.933 18.7317 15.0551C18.8129 14.9988 18.8566 15.0175 18.8566 15.1175C18.8692 15.2113 18.8566 15.305 18.8442 15.3988C18.7032 16.0944 18.5281 16.7828 18.3192 17.4613C18.3 17.531 18.2596 17.5932 18.2037 17.6391C18.1477 17.6849 18.0789 17.7123 18.0067 17.7176C17.0379 17.8612 16.088 17.7925 15.1129 17.6738C14.9505 17.655 14.5505 17.5488 14.863 17.3925ZM18.9004 18.955L19.3942 18.4362C19.4567 18.3675 19.3816 18.2488 19.288 18.2738C19.1754 18.3113 18.8817 18.3363 18.8254 18.4613L18.6192 18.8988C18.538 19.0738 18.8254 19.0363 18.9004 18.955ZM13.3504 18.7925L13.1817 18.4238C13.1317 18.3113 13.1691 18.1363 13.3067 18.1176C13.3692 18.1176 13.4255 18.1176 13.4942 18.1363C14.0567 18.2987 14.5567 18.4113 15.0005 18.4676C15.8318 18.58 16.6379 18.655 17.4754 18.6238C17.538 18.6238 17.8443 18.5988 17.7754 18.7425C17.3067 19.755 16.3191 21.1925 15.0066 20.7238C14.7567 20.63 14.4442 20.3863 14.2568 20.18C13.8821 19.7692 13.5762 19.3006 13.3504 18.7925ZM7.78794 19.9551C8.80952 20.5865 9.94228 21.0172 11.1254 21.2238C11.9818 21.3926 12.888 21.3488 13.7504 21.3113C13.8442 21.3113 14.0942 21.2113 13.9754 21.08C13.7442 20.8301 13.4817 20.5613 13.288 20.3051C12.9755 19.8676 12.713 19.405 12.5068 18.9051C12.413 18.6801 12.3379 18.5488 12.0693 18.6426C11.2755 18.9488 10.4254 19.2051 9.5192 19.4113C8.90045 19.5551 8.3192 19.5988 7.7067 19.7363C7.56919 19.7613 7.75045 19.93 7.78794 19.9551Z" fill="white"/>
</svg>
