<svg width="40" height="40" viewBox="0 0 40 40" fill="none" xmlns="http://www.w3.org/2000/svg">
<path fill-rule="evenodd" clip-rule="evenodd" d="M12.6669 12.1874L12.6711 12.1906C12.9919 12.4614 13.2325 12.6635 13.3846 12.8062L13.4784 12.8979C13.5012 12.921 13.5228 12.9453 13.543 12.9708C13.8627 13.3916 13.743 13.7687 13.194 14.0645C12.8888 14.2291 12.2617 14.3958 11.9482 14.3958C11.594 14.3958 11.4711 14.2656 11.4711 14.2656L11.3982 14.2041C11.2232 14.0614 11.0211 13.8968 10.0919 12.3322C9.43417 11.3635 8.77445 10.3962 8.11278 9.43019C7.86767 9.0657 7.61763 8.70457 7.3628 8.34684C7.28465 8.27809 7.2857 8.28017 9.94193 12.7906C10.2836 13.5385 10.1357 13.9093 10.0607 14.0979C10.0434 14.1332 10.0321 14.1713 10.0273 14.2104C10.0273 14.4812 9.94923 14.6249 9.59505 15C9.00547 15.6249 8.74092 16.3271 8.55028 17.7813C8.33778 19.4093 7.73778 20.5603 6.0732 22.5292C5.09925 23.6822 4.93988 23.8937 4.69405 24.3583C4.38467 24.9427 4.29927 25.2708 4.26487 26.0092C4.22842 26.7905 4.29927 27.2957 4.55133 28.0425C4.77008 28.6957 5.00132 29.128 5.58778 29.9903C6.09507 30.7363 6.38673 31.2905 6.38673 31.507C6.38673 31.6792 6.42217 31.6802 7.20758 31.5115C9.08777 31.1082 10.6138 30.4 11.4732 29.5322C12.0044 28.9937 12.1294 28.6968 12.1336 27.9603C12.1357 27.478 12.1179 27.377 11.9805 27.1C11.7575 26.6488 11.3503 26.2738 10.4544 25.6937C9.27945 24.93 8.77737 24.3175 8.63985 23.4738C8.52527 22.7812 8.65757 22.2927 9.30652 21.001C9.97945 19.6635 10.1461 19.0925 10.2596 17.7448C10.3325 16.874 10.4336 16.5301 10.6971 16.2552C10.9721 15.9667 11.219 15.8697 11.9002 15.7812C13.0107 15.6376 13.7169 15.3646 14.2981 14.8572C14.8013 14.4156 15.0127 13.9916 15.045 13.352L15.069 12.8677L14.7877 12.5562C13.7669 11.4281 3.91697 3.33334 3.85447 3.33334C3.84195 3.33334 4.17737 3.73229 4.60028 4.21979C8.37528 8.56872 11.2753 11.0125 12.6669 12.1874ZM6.95862 26.8937C7.0693 26.7067 7.10238 26.4838 7.05078 26.2728C6.99918 26.0617 6.86703 25.8793 6.68258 25.7643C6.318 25.5352 5.75133 25.6427 5.75133 25.9417C5.75165 25.972 5.75878 26.0018 5.77217 26.0292L5.78572 26.0528C5.80025 26.0732 5.81782 26.0907 5.8378 26.1052L5.88362 26.1375L5.9253 26.1582C6.12737 26.2583 6.14195 26.3687 5.98258 26.5957C5.82112 26.8248 5.83467 27.028 6.01903 27.1643C6.31695 27.3863 6.73778 27.2645 6.95862 26.8937Z" fill="white"/>
<path d="M13.5315 5.69981C13.4742 5.68315 13.521 5.67275 13.6387 5.65606C14.0492 5.59565 15.019 5.6769 15.6855 5.82796C17.245 6.18003 18.6627 7.08003 20.1762 8.68001L20.5782 9.10501L21.1533 9.01751C23.5773 8.64773 26.0428 8.94148 28.1063 9.84565C28.6732 10.0946 29.5678 10.5894 29.6793 10.7165C29.7158 10.7571 29.7802 11.0186 29.8252 11.2967C29.9772 12.2602 29.901 12.9987 29.5907 13.5508C29.5505 13.6194 29.5153 13.6907 29.4855 13.7644L29.4648 13.8248C29.4325 13.9466 29.4543 14.0435 29.5263 14.2029C29.6167 14.4081 29.87 14.5602 30.1198 14.5591C30.6323 14.5591 31.1833 13.7727 31.4395 12.679L31.5417 12.2435L31.7428 12.4602C32.845 13.6466 33.7117 15.2643 33.8603 16.4154L33.899 16.7153L33.7145 16.4424C33.395 15.9738 33.0742 15.6529 32.6637 15.3955C31.924 14.931 31.1407 14.7727 29.0678 14.6685C27.1958 14.5748 26.1367 14.4237 25.0867 14.0987C23.298 13.5456 22.398 12.8092 20.2742 10.1654C19.3313 8.99043 18.748 8.34148 18.1688 7.81855C16.8512 6.629 15.5564 6.00606 13.8992 5.76231C13.7757 5.747 13.653 5.72615 13.5315 5.69981Z" fill="white"/>
<path d="M30.101 8.38449C30.1488 7.59699 30.2605 7.07824 30.4865 6.60324C30.5772 6.41574 30.6605 6.26262 30.6738 6.26262C30.6865 6.26262 30.6468 6.40115 30.5863 6.57095C30.423 7.03034 30.3948 7.65947 30.5083 8.39177C30.6532 9.32095 30.7343 9.45427 31.7688 10.4574C32.2533 10.9282 32.8188 11.522 33.023 11.7772L33.3948 12.2397L33.023 11.9095C32.5678 11.5032 31.5218 10.7147 31.2908 10.6011C31.248 10.5774 31.202 10.5598 31.1542 10.5491C31.1418 10.5468 31.1292 10.5468 31.1167 10.5491C31.0853 10.5563 31.0583 10.5782 31.0178 10.6178C30.9292 10.7011 30.9103 10.8261 30.898 11.4168C30.8793 12.3376 30.7468 12.9282 30.4272 13.5199C30.2553 13.8397 30.2282 13.7709 30.3835 13.4105C30.501 13.1407 30.5125 13.023 30.5115 12.1313C30.5093 10.3397 30.2855 9.90844 28.9708 9.17094C28.5748 8.95114 28.168 8.75122 27.7522 8.57197C27.4145 8.42927 27.147 8.30532 27.1563 8.29594C27.1938 8.26052 28.475 8.61572 28.9917 8.80425C29.7583 9.08449 29.8855 9.12094 29.9783 9.08657C30.0407 9.06469 30.0718 8.89175 30.101 8.38449ZM13.4116 7.00845C13.2876 8.39177 13.8595 10.2418 14.7835 11.4491C15.4991 12.3845 16.6083 13.1105 17.4282 13.1813C17.9645 13.2272 18.1262 13.0668 17.8833 12.7313C17.546 12.2647 17.1313 11.5449 17.022 11.2376C16.8952 10.8235 16.7853 10.4044 16.693 9.98135C16.3074 8.2772 15.9293 7.61365 15.0543 7.10949C14.7356 6.92615 14.0543 6.68554 13.6595 6.61677L13.4501 6.58032L13.4116 7.00845ZM28.9813 20.4293C24.6647 18.7803 23.1448 17.349 23.1448 14.9334C23.1448 14.5782 23.1575 14.2876 23.173 14.2876C23.1898 14.2876 23.3563 14.4042 23.5448 14.548C24.4198 15.2148 25.4002 15.4979 28.1135 15.8739C29.7095 16.0949 30.6083 16.274 31.4367 16.5346C34.0718 17.3637 35.7022 19.0458 36.0907 21.3385C36.2032 22.0043 36.1365 23.253 35.9542 23.9115C35.8083 24.4313 35.3678 25.3677 35.2512 25.4042C35.2355 25.4085 35.2197 25.3843 35.2083 25.3417C35.191 25.274 35.1812 25.205 35.1782 25.1355C35.1345 24.2752 34.676 23.4375 33.9072 22.8095C33.0323 22.0958 31.8552 21.5282 28.9813 20.4293ZM25.7428 20.248C25.8032 20.4188 25.8968 20.8093 25.9512 21.1147C26.297 23.0667 25.2168 24.6448 23.1157 25.2563C22.9603 25.2965 22.8038 25.3312 22.6458 25.3603C22.4497 25.3983 22.2533 25.4345 22.0563 25.4687L21.6687 25.5353L21.1688 25.6177C19.452 25.8885 18.6855 26.0812 17.9157 26.4335C17.3688 26.6833 16.7075 27.0563 16.7482 27.0938C16.7532 27.0988 16.7805 27.097 16.822 27.0875C16.874 27.077 16.9468 27.0563 17.024 27.0313C17.995 26.7073 19.076 26.5397 20.7178 26.4585C20.9542 26.448 21.202 26.4335 21.4353 26.4177L21.746 26.397L22.0605 26.3738L22.201 26.3615L22.3647 26.3447C23.827 26.1697 24.8418 25.749 25.6293 24.9875C26.0687 24.5637 26.3303 24.1688 26.5408 23.6125C26.674 23.2583 26.6917 23.1282 26.6938 22.502C26.6938 21.8647 26.678 21.748 26.5335 21.3563C26.3438 20.8417 26.121 20.4562 25.8377 20.1542L25.6325 19.9367L25.7428 20.248Z" fill="white"/>
<path d="M27.9297 24.4487C27.3565 23.279 27.2252 22.1498 27.5389 21.0957C27.5724 20.9832 27.6264 20.8915 27.6599 20.8915C27.7062 20.9027 27.7505 20.9213 27.791 20.9467C27.843 20.9737 27.9014 21.0092 27.9597 21.0457C28.2242 21.2143 28.7545 21.4987 30.166 22.229C31.9284 23.1415 32.9327 23.8465 33.6159 24.654C34.2139 25.36 34.5847 26.1643 34.7629 27.1455C34.864 27.7007 34.8044 29.0382 34.6545 29.5977C34.1805 31.3623 33.0795 32.7477 31.5085 33.5558C31.3605 33.6375 31.2075 33.71 31.0504 33.7727C31.0442 33.7727 31.046 33.7572 31.0555 33.729L31.0742 33.6747C31.1065 33.5913 31.1649 33.4655 31.2357 33.3238C31.765 32.2747 31.8244 31.2562 31.4252 30.1205C31.1805 29.4258 30.6815 28.5788 29.6752 27.1455C28.5045 25.479 28.2169 25.0363 27.9297 24.4487ZM17.1275 28.2862C15.3129 28.5665 13.3203 29.4778 11.7182 30.7612L11.2411 31.1435L11.6598 31.206C13.8473 31.5288 14.4369 31.8163 15.9536 33.2997C16.8264 34.1538 17.1202 34.3433 17.8454 34.5183C18.9077 34.7758 19.9567 34.3028 20.316 33.4018C20.4764 32.9998 20.4557 32.334 20.2712 31.9998C19.8327 31.2028 18.5545 30.9455 17.9379 31.5288C17.4234 32.0153 17.5734 32.7477 18.2129 32.8727C18.3587 32.9018 18.3557 32.8955 18.1754 32.8185C17.8952 32.6987 17.7744 32.5322 17.7724 32.2665C17.7692 31.6455 18.518 31.2955 19.2162 31.5945C19.7265 31.8132 19.9295 32.0988 19.9295 32.5997C19.9295 33.3707 19.238 33.9528 18.4327 33.857C18.0025 33.806 17.4764 33.5445 17.1932 33.2423C16.4837 32.4812 16.7609 31.279 17.7525 30.8173C18.5067 30.4663 19.5097 30.553 20.288 31.0362C21.1805 31.5915 21.5619 32.0988 22.3307 33.7653C22.5817 34.3068 22.9035 34.9185 23.0484 35.1227C23.7775 36.158 24.6504 36.6665 25.7035 36.6665C26.2827 36.6665 26.7202 36.5653 27.269 36.3048C27.6774 36.1123 28.2555 35.7445 28.214 35.705C28.2024 35.6945 28.0327 35.7433 27.8377 35.8163C26.6889 36.2413 25.5212 36.2122 24.842 35.7405C24.415 35.4435 24.0712 34.8528 23.8942 34.1143C23.8629 33.986 23.7617 33.4217 23.6682 32.858C23.4327 31.432 23.2065 30.7913 22.6784 30.0558C22.1389 29.3028 21.0994 28.6705 19.938 28.3893C19.2139 28.2133 17.9097 28.1653 17.1275 28.2862Z" fill="white"/>
<path fill-rule="evenodd" clip-rule="evenodd" d="M14.5851 17.26C14.7414 16.7108 15.2487 16.1868 15.7694 16.0349C16.0997 15.9379 16.785 15.9994 17.1069 16.1547C17.732 16.4566 18.1842 17.142 18.0862 17.6368C17.9664 18.2412 16.934 18.7233 15.7475 18.7307C15.1414 18.736 14.9174 18.6577 14.6862 18.3652C14.5435 18.1828 14.4893 17.5932 14.5851 17.26ZM16.9477 16.3703C17.259 16.5504 17.3392 16.8183 17.156 17.064C17.0299 17.2338 16.6393 17.3953 16.3539 17.3953C15.9269 17.3953 15.4591 17.1068 15.4591 16.843C15.4591 16.312 16.3549 16.0264 16.9477 16.3703Z" fill="white"/>
</svg>
