<svg width="25" height="24" viewBox="0 0 25 24" fill="none" xmlns="http://www.w3.org/2000/svg">
<path d="M17.1427 3.77169L17.1445 3.77271C18.5883 4.60859 19.7463 5.76589 20.6033 7.23228C21.4572 8.69335 21.875 10.2659 21.875 12C21.875 13.7341 21.4572 15.3066 20.6033 16.7677L20.6023 16.7695C19.7664 18.2133 18.6091 19.3713 17.1427 20.2283C15.6816 21.0822 14.1091 21.5 12.375 21.5C10.6409 21.5 9.06835 21.0822 7.60729 20.2283L7.60552 20.2273C6.16174 19.3914 5.00367 18.2341 4.14669 16.7677C3.29282 15.3066 2.875 13.7341 2.875 12C2.875 10.2659 3.29282 8.69335 4.14669 7.23228L4.14669 7.23229L4.14771 7.23052C4.98359 5.78674 6.14089 4.62867 7.60728 3.77169C9.06835 2.91782 10.6409 2.5 12.375 2.5C14.1091 2.5 15.6816 2.91782 17.1427 3.77169ZM9.355 12.52H8.7338L8.86655 13.1268C9.02714 13.861 9.37611 14.4934 9.93471 15.0064C10.7212 15.7454 11.7496 16.12 12.995 16.12H19.375H19.6874L19.8244 15.8392C20.2481 14.9707 20.5238 14.0585 20.6508 13.0847L20.7245 12.52H20.155H9.355ZM8.84728 10.8899L8.70951 11.5H9.335H20.135H20.7045L20.6308 10.9353C20.5051 9.97199 20.2515 9.03201 19.7977 8.16758L19.6572 7.9H19.355H12.975C11.724 7.9 10.7195 8.27784 9.91762 9.01099L9.91752 9.01088L9.90905 9.01901C9.35808 9.54701 9.00886 10.1743 8.84728 10.8899ZM5.18311 7.76806L5.04683 8.00169L5.09795 8.10393C4.62045 9.0044 4.33286 9.97073 4.21817 10.9838L4.1552 11.54H4.715H7.195H7.62685L7.68968 11.1127C7.78079 10.4932 7.98039 9.91478 8.28635 9.39286L8.28638 9.39288L8.28912 9.38807C8.72177 8.63094 9.35157 8.01871 10.1466 7.60311C10.9514 7.18243 11.9114 6.94 12.975 6.94H18.015H19.2221L18.3686 6.08645C17.8436 5.56144 17.2899 5.11313 16.6265 4.72788C15.35 3.9833 13.9631 3.6 12.415 3.6C10.8678 3.6 9.4817 3.98284 8.20576 4.72654C6.92192 5.45473 5.92207 6.50128 5.18311 7.76806ZM16.5869 19.2919L18.1845 18.36H17.8414C17.974 18.2416 18.1029 18.1192 18.2286 17.9936L19.0821 17.14H17.875H12.855C11.7908 17.14 10.8558 16.9173 10.0384 16.4831C9.24621 16.0211 8.61823 15.442 8.17063 14.6943C7.87844 14.1438 7.67714 13.5567 7.56694 12.9506L7.49229 12.54H7.075H4.595H4.0352L4.09817 13.0962C4.22645 14.2294 4.58998 15.2734 5.13972 16.246L5.13962 16.2461L5.14497 16.2551C5.8842 17.5012 6.88292 18.5451 8.16306 19.2919C9.43975 20.0366 10.8267 20.42 12.375 20.42C13.9233 20.42 15.3103 20.0366 16.5869 19.2919Z" fill="black" stroke="#B205AD"/>
</svg>
