<svg width="116" height="29" viewBox="0 0 116 29" fill="none" xmlns="http://www.w3.org/2000/svg">
<g clip-path="url(#clip0_55_3858)">
<path d="M43.9928 14.3529L50.555 5.52464H45.4642L41.3739 11.4396L37.2247 5.52464H31.8986L38.3724 14.5589L31.5454 23.7991H36.6068L41.0208 17.5604L45.4053 23.7991H50.7611L43.9928 14.3529Z" fill="white"/>
<path d="M64.8564 18.2373H64.7975L60.6521 5.52464H53.7037V23.8285H58V10.3507H58.1177L62.6494 23.8285H66.6808L71.1831 10.3507H71.3009V23.8285H75.8914V5.52464H69.035L64.8564 18.2373Z" fill="white"/>
<path d="M78.9518 5.49521V9.3502H85.4122L85.3963 23.7991H90.0162L90.0253 9.3502H96.4607V5.49521H78.9518Z" fill="white"/>
<path d="M108.584 5.49521H99.4622V23.7991H104.082V18.0902H108.496C113.184 18.0902 116 15.8413 116 11.7044C116 7.61764 113.179 5.52143 108.591 5.52143L108.584 5.49521ZM104.082 14.294V9.3502H108.143C110.074 9.3502 111.35 9.9962 111.35 11.8515C111.35 13.6818 110.086 14.2646 108.055 14.2646L104.082 14.294Z" fill="white"/>
<path d="M0 14.5C0 6.99144 6.08674 0.904541 13.5951 0.904541C21.0986 0.904541 26.896 6.8783 27.0725 14.4411C27.0725 16.8542 26.2486 18.8846 24.1887 20.7974C22.4481 22.4139 19.4804 22.6514 17.3031 21.4449C15.7489 20.5483 14.5512 18.6391 13.5363 17.2367L11.653 20.1206H7.59209L11.4176 14.4409L7.70979 8.84994H11.8884L13.5658 11.7338L15.2135 8.84994H19.4217L15.5962 14.4411C15.5962 14.4411 17.4206 17.2367 18.4211 18.3256C19.4217 19.4144 21.2461 19.4438 22.4231 18.2667C23.7173 16.9725 24.007 15.942 24.0122 14.4411C24.0324 8.63184 19.4182 3.96499 13.5951 3.96499C7.77695 3.96499 3.06037 8.68167 3.06037 14.5C3.06037 20.3183 7.77695 25.0351 13.5951 25.0351C14.3999 25.0351 15.1712 24.9674 15.9198 24.7996L16.5673 27.7718C15.502 28.0106 14.6414 28.0955 13.5951 28.0955C6.08674 28.0955 0 22.0085 0 14.5Z" fill="#FC4F37"/>
</g>
<defs>
<clipPath id="clip0_55_3858">
<rect width="116" height="27.1909" fill="white" transform="translate(0 0.904541)"/>
</clipPath>
</defs>
</svg>
